<?xml version="1.0" encoding="utf-8"?>
<!-- Generator: Adobe Illustrator 22.1.0, SVG Export Plug-In . SVG Version: 6.00 Build 0)  -->
<svg version="1.1" id="Layer_1" xmlns="http://www.w3.org/2000/svg" xmlns:xlink="http://www.w3.org/1999/xlink" x="0px" y="0px"
	 viewBox="0 0 459.2 157.5" style="enable-background:new 0 0 459.2 157.5;" xml:space="preserve">
<style type="text/css">
	.st0{fill:#FFFFFF;}
	.st1{fill:none;stroke:#C5C3C6;stroke-miterlimit:10;}
	.st2{fill:#FF5E50;}
	.st3{fill:none;}
	.st4{fill:none;stroke:#949699;stroke-width:1.85;}
	.st5{fill:none;stroke:#949699;stroke-width:1.85;stroke-linejoin:round;stroke-miterlimit:7.4;}
	.st6{fill:#949699;}
</style>
<g id="Grid">
	<rect x="-1419.4" y="-363.7" class="st0" width="1259.2" height="1260"/>
	<line class="st1" x1="-999.8" y1="-363.7" x2="-999.8" y2="896.3"/>
	<line class="st1" x1="-580" y1="-363.7" x2="-580" y2="896.3"/>
	<line class="st1" x1="-1420.3" y1="266.3" x2="-160.3" y2="266.3"/>
	<line class="st1" x1="-1420.3" y1="-48.7" x2="-160.3" y2="-48.7"/>
	<line class="st1" x1="-1420.3" y1="581.3" x2="-160.3" y2="581.3"/>
</g>
<g>
	<g>
		<path class="st2" d="M-125.1,108.1c0-4.2,3.4-7.6,7.6-7.6V68.9l-71-19.6l-71-19.6l-71,19.6l-71,19.6v31.6l0,0
			c4.2,0,7.6,3.4,7.6,7.6s-3.4,7.6-7.6,7.6l0,0v31.6l71,19.6l71,19.6l71-19.6l71-19.6v-31.6C-121.7,115.6-125.1,112.2-125.1,108.1z"
			/>
	</g>
	<polygon class="st0" points="-349.5,147.9 -259.4,172.7 -169.3,147.9 -169.3,137.2 -349.5,137.2 	"/>
	<polygon class="st0" points="-259.4,43.4 -349.5,68.2 -349.5,78.9 -169.3,78.9 -169.3,68.2 	"/>
	<text transform="matrix(1 0 0 1 -352.7067 121.1319)" class="st0" style="font-family:'ArialMT'; font-size:37.5486px;">money back</text>
	<text transform="matrix(1 0 0 1 -298.3199 155.2003)" class="st2" style="font-family:'ArialMT'; font-size:17.6493px;">Guarantee</text>
	<g>
		<path class="st2" d="M-302.1,147.1c1.1,0,1.9,0.9,1.9,1.9c0,1.1-0.9,1.9-1.9,1.9c-1.1,0-1.9-0.9-1.9-1.9
			C-304,147.9-303.2,147.1-302.1,147.1"/>
		<path class="st2" d="M-216.7,147.1c1.1,0,1.9,0.9,1.9,1.9c0,1.1-0.9,1.9-1.9,1.9c-1.1,0-1.9-0.9-1.9-1.9
			C-218.6,147.9-217.8,147.1-216.7,147.1"/>
	</g>
	<text transform="matrix(1 0 0 1 -292.0416 70.0655)" class="st2" style="font-family:'ArialMT'; font-size:17.6493px;">Risk Free</text>
	<g>
		<path class="st2" d="M-302.1,63.6c1.1,0,1.9,0.9,1.9,1.9s-0.9,1.9-1.9,1.9c-1.1,0-1.9-0.9-1.9-1.9S-303.2,63.6-302.1,63.6"/>
		<path class="st2" d="M-216.7,63.6c1.1,0,1.9,0.9,1.9,1.9s-0.9,1.9-1.9,1.9c-1.1,0-1.9-0.9-1.9-1.9S-217.8,63.6-216.7,63.6"/>
	</g>
	<rect x="-386.9" y="76.1" class="st0" width="254.9" height="2.8"/>
	<rect x="-386.9" y="137.2" class="st0" width="254.9" height="2.8"/>
</g>
<g>
	<path class="st2" d="M-200.8,623.7c63.5,0,115,51.5,115,115s-51.5,115-115,115s-115-51.5-115-115S-264.3,623.7-200.8,623.7"/>
	<g>
		<path id="SVGID_x5F_1_x5F_" class="st3" d="M-118.1,725.7c-6.3-40.1-40.9-70.9-82.7-70.9c-41.9,0-76.5,30.7-82.7,70.9"/>
		<text transform="matrix(1 0 0 1 -1251.5 -363.9082)" style="font-family:'ArialMT'; font-size:12px;">   </text>
		<text transform="matrix(1 0 0 1 -118.0836 725.6891)" style="font-family:'ArialMT'; font-size:12px;"> </text>
		
			<text transform="matrix(1 0 0 1 -118.416 722.3413)" class="st0" style="font-family:'ArialMT'; font-size:18.7973px; letter-spacing:8;">R</text>
		
			<text transform="matrix(1 0 0 1 -126.4019 700.2096)" class="st0" style="font-family:'ArialMT'; font-size:18.7973px; letter-spacing:8;">I</text>
		
			<text transform="matrix(1 0 0 1 -134.4318 687.2561)" class="st0" style="font-family:'ArialMT'; font-size:18.7973px; letter-spacing:8;">S</text>
		
			<text transform="matrix(1 0 0 1 -150.455 671.4104)" class="st0" style="font-family:'ArialMT'; font-size:18.7973px; letter-spacing:8;">K</text>
		
			<text transform="matrix(1 0 0 1 -170.163 660.562)" class="st0" style="font-family:'ArialMT'; font-size:18.7973px; letter-spacing:8;"> </text>
		
			<text transform="matrix(1 0 0 1 -184.7382 656.1377)" class="st0" style="font-family:'ArialMT'; font-size:18.7973px; letter-spacing:8;">F</text>
		
			<text transform="matrix(1 0 0 1 -206.1785 654.687)" class="st0" style="font-family:'ArialMT'; font-size:18.7973px; letter-spacing:8;">R</text>
		
			<text transform="matrix(1 0 0 1 -229.2488 659.4922)" class="st0" style="font-family:'ArialMT'; font-size:18.7973px; letter-spacing:8;">E</text>
		
			<text transform="matrix(1 0 0 1 -249.2232 669.9191)" class="st0" style="font-family:'ArialMT'; font-size:18.7973px; letter-spacing:8;">E</text>
		
			<text transform="matrix(1 0 0 1 -265.5521 685.4009)" class="st0" style="font-family:'ArialMT'; font-size:18.7973px; letter-spacing:8;"> </text>
		
			<text transform="matrix(1 0 0 1 -274.34 697.87)" class="st0" style="font-family:'ArialMT'; font-size:18.7973px; letter-spacing:8;">G</text>
		<text transform="matrix(1 0 0 1 -1251.5 -363.9082)" style="font-family:'ArialMT'; font-size:12px;"> </text>
	</g>
	<g>
		<path id="SVGID_x5F_2_x5F_" class="st3" d="M-283.5,751.6c6.3,40.1,40.9,70.9,82.7,70.9c41.9,0,76.5-30.7,82.7-70.9"/>
		<text transform="matrix(1 0 0 1 -1251.5 -363.9082)" style="font-family:'ArialMT'; font-size:12px;">   </text>
		<text transform="matrix(1 0 0 1 -283.5163 751.5946)" style="font-family:'ArialMT'; font-size:12px;"> </text>
		
			<text transform="matrix(1 0 0 1 -283.1839 754.9424)" class="st0" style="font-family:'ArialMT'; font-size:18.7973px; letter-spacing:8;">R</text>
		
			<text transform="matrix(1 0 0 1 -275.1982 777.074)" class="st0" style="font-family:'ArialMT'; font-size:18.7973px; letter-spacing:8;">I</text>
		
			<text transform="matrix(1 0 0 1 -267.1683 790.0273)" class="st0" style="font-family:'ArialMT'; font-size:18.7973px; letter-spacing:8;">S</text>
		
			<text transform="matrix(1 0 0 1 -251.145 805.8733)" class="st0" style="font-family:'ArialMT'; font-size:18.7973px; letter-spacing:8;">K</text>
		
			<text transform="matrix(1 0 0 1 -231.4373 816.7216)" class="st0" style="font-family:'ArialMT'; font-size:18.7973px; letter-spacing:8;"> </text>
		
			<text transform="matrix(1 0 0 1 -216.8618 821.1459)" class="st0" style="font-family:'ArialMT'; font-size:18.7973px; letter-spacing:8;">F</text>
		
			<text transform="matrix(1 0 0 1 -195.4216 822.5966)" class="st0" style="font-family:'ArialMT'; font-size:18.7973px; letter-spacing:8;">R</text>
		
			<text transform="matrix(1 0 0 1 -172.3516 817.7914)" class="st0" style="font-family:'ArialMT'; font-size:18.7973px; letter-spacing:8;">E</text>
		
			<text transform="matrix(1 0 0 1 -152.377 807.3646)" class="st0" style="font-family:'ArialMT'; font-size:18.7973px; letter-spacing:8;">E</text>
		
			<text transform="matrix(1 0 0 1 -136.048 791.8829)" class="st0" style="font-family:'ArialMT'; font-size:18.7973px; letter-spacing:8;"> </text>
		
			<text transform="matrix(1 0 0 1 -127.2601 779.4137)" class="st0" style="font-family:'ArialMT'; font-size:18.7973px; letter-spacing:8;">G</text>
		<text transform="matrix(1 0 0 1 -1251.5 -363.9082)" style="font-family:'ArialMT'; font-size:12px;"> </text>
	</g>
	<g>
		<polygon class="st0" points="-290.8,732.9 -289.3,737.4 -284.6,737.4 -288.4,740.1 -287,744.6 -290.8,741.9 -294.6,744.6 
			-293.2,740.1 -297,737.4 -292.3,737.4 		"/>
		<polygon class="st0" points="-110.8,732.9 -109.4,737.4 -104.6,737.4 -108.5,740.1 -107,744.6 -110.8,741.9 -114.6,744.6 
			-113.2,740.1 -117,737.4 -112.3,737.4 		"/>
	</g>
	<g>
		<polygon class="st0" points="-158.7,758.6 -242.9,758.6 -241,759.7 -241.9,769 -232.7,771.1 -230.6,780.3 -221.3,779.4 
			-216.5,787.5 -207.9,783.8 -200.8,790 -193.7,783.8 -185.1,787.5 -180.3,779.4 -171,780.3 -168.9,771.1 -159.7,769 -160.6,759.7 
					"/>
		<polygon class="st0" points="-242.9,719.8 -158.7,719.8 -160.6,718.7 -159.7,709.4 -168.9,707.3 -171,698.1 -180.3,699 
			-185.1,690.9 -193.7,694.6 -200.8,688.4 -207.9,694.6 -216.5,690.9 -221.3,699 -230.6,698.1 -232.7,707.3 -241.9,709.4 
			-241,718.7 		"/>
	</g>
	<g>
		<path class="st0" d="M-229.3,675.4l-0.7-1.5c-1,0.5-2,1-3.1,1.5l0.8,1.5C-231.3,676.4-230.3,675.9-229.3,675.4z"/>
		<path class="st0" d="M-243.5,684l-1-1.3c-0.9,0.7-1.8,1.4-2.6,2.2l1.1,1.3C-245.2,685.4-244.3,684.7-243.5,684z"/>
		<path class="st0" d="M-236.7,679.3l-0.9-1.4c-1,0.6-1.9,1.2-2.9,1.8l0.9,1.4C-238.5,680.5-237.6,679.9-236.7,679.3z"/>
		<path class="st0" d="M-221.6,672.4l-0.5-1.6c-1.1,0.3-2.2,0.7-3.2,1.1l0.6,1.6C-223.7,673.1-222.6,672.8-221.6,672.4z"/>
		<path class="st0" d="M-213.5,670.4l-0.3-1.7c-1.1,0.2-2.2,0.5-3.3,0.7l0.4,1.6C-215.7,670.8-214.6,670.6-213.5,670.4z"/>
		<path class="st0" d="M-205.3,669.3l-0.1-1.7c-1.1,0.1-2.3,0.2-3.4,0.3l0.2,1.7C-207.5,669.5-206.4,669.4-205.3,669.3z"/>
		<path class="st0" d="M-260,702.5l-1.4-0.9c-0.6,1-1.2,1.9-1.7,2.9l1.5,0.8C-261.1,704.4-260.6,703.5-260,702.5z"/>
		<path class="st0" d="M-263.9,709.9l-1.5-0.7c-0.5,1-0.9,2.1-1.4,3.1l1.6,0.6C-264.8,711.9-264.4,710.9-263.9,709.9z"/>
		<path class="st0" d="M-255.2,695.7l-1.3-1c-0.7,0.9-1.4,1.8-2,2.7l1.4,1C-256.6,697.5-255.9,696.6-255.2,695.7z"/>
		<path class="st0" d="M-249.7,689.5l-1.2-1.2c-0.8,0.8-1.6,1.6-2.4,2.5l1.2,1.1C-251.2,691.1-250.5,690.3-249.7,689.5z"/>
		<path class="st0" d="M-172.1,673.2c-1-0.4-2.1-0.9-3.2-1.3l-0.6,1.6c1,0.4,2.1,0.8,3.1,1.2L-172.1,673.2z"/>
		<path class="st0" d="M-145.1,693.3c-0.7-0.9-1.5-1.7-2.2-2.6l-1.2,1.1c0.7,0.8,1.5,1.7,2.2,2.5L-145.1,693.3z"/>
		<path class="st0" d="M-196.9,669.2l0.1-1.7c-1.1-0.1-2.3-0.1-3.4-0.1h-0.1l0.1,1.7C-199.1,669.1-198,669.1-196.9,669.2z"/>
		<path class="st0" d="M-135.8,707.6c-0.5-1-1-2-1.6-3l-1.5,0.8c0.5,1,1,1.9,1.5,2.9L-135.8,707.6z"/>
		<path class="st0" d="M-157.4,681.6c-0.9-0.7-1.8-1.3-2.8-2l-0.9,1.4c0.9,0.6,1.8,1.3,2.7,1.9L-157.4,681.6z"/>
		<path class="st0" d="M-140,700.2c-0.6-1-1.3-1.9-1.9-2.8l-1.4,1c0.6,0.9,1.3,1.8,1.9,2.7L-140,700.2z"/>
		<path class="st0" d="M-150.9,687.1c-0.8-0.8-1.7-1.5-2.5-2.3l-1.1,1.3c0.8,0.7,1.7,1.5,2.5,2.2L-150.9,687.1z"/>
		<path class="st0" d="M-180.1,670.3c-1.1-0.3-2.2-0.6-3.3-0.9l-0.4,1.6c1.1,0.3,2.1,0.5,3.2,0.9L-180.1,670.3z"/>
		<path class="st0" d="M-188.4,668.4c-1.1-0.2-2.2-0.3-3.4-0.5l-0.2,1.7c1.1,0.1,2.2,0.3,3.3,0.5L-188.4,668.4z"/>
		<path class="st0" d="M-267.6,719.8c0.2-0.7,0.4-1.5,0.7-2.2l-1.6-0.5c-0.3,0.9-0.6,1.8-0.8,2.8L-267.6,719.8L-267.6,719.8
			L-267.6,719.8z"/>
		<path class="st0" d="M-164.5,677c-1-0.6-2-1.1-3-1.6l-0.8,1.5c1,0.5,2,1,2.9,1.6L-164.5,677z"/>
		<path class="st0" d="M-132.5,715.4c-0.4-1.1-0.8-2.1-1.2-3.2l-1.6,0.6c0.4,1,0.8,2.1,1.2,3.1L-132.5,715.4z"/>
		<path class="st0" d="M-267.8,758.6l-1.5,0.4c0.3,1.1,0.7,2.2,1,3.2l1.6-0.5C-267.1,760.7-267.4,759.6-267.8,758.6L-267.8,758.6z"
			/>
		<path class="st0" d="M-199.4,809.3v1.7c1.1,0,2.3-0.1,3.4-0.1l-0.1-1.7C-197.2,809.2-198.3,809.3-199.4,809.3z"/>
		<path class="st0" d="M-167.5,801.2l0.8,1.5c1-0.5,2-1.1,3-1.7l-0.9-1.4C-165.6,800.1-166.5,800.6-167.5,801.2z"/>
		<path class="st0" d="M-191.1,808.7l0.2,1.7c1.1-0.1,2.3-0.3,3.4-0.5l-0.3-1.7C-188.9,808.4-190,808.5-191.1,808.7z"/>
		<path class="st0" d="M-183,807.1l0.4,1.6c1.1-0.3,2.2-0.6,3.3-0.9l-0.5-1.6C-180.8,806.5-181.9,806.8-183,807.1z"/>
		<path class="st0" d="M-175,804.6l0.6,1.6c1.1-0.4,2.1-0.8,3.1-1.3l-0.7-1.5C-173,803.8-174,804.2-175,804.6z"/>
		<path class="st0" d="M-135,764.7l1.6,0.6c0.4-1.1,0.8-2.1,1.2-3.2l-1.6-0.5C-134.2,762.7-134.6,763.7-135,764.7z"/>
		<path class="st0" d="M-138.5,772.3l1.5,0.8c0.5-1,1.1-2,1.5-3l-1.5-0.7C-137.4,770.3-137.9,771.3-138.5,772.3z"/>
		<path class="st0" d="M-153.9,791.7l1.1,1.3c0.8-0.8,1.7-1.5,2.5-2.3l-1.2-1.2C-152.2,790.2-153,791-153.9,791.7z"/>
		<path class="st0" d="M-148,785.9l1.3,1.1c0.8-0.8,1.5-1.7,2.2-2.6l-1.3-1.1C-146.5,784.2-147.3,785.1-148,785.9z"/>
		<path class="st0" d="M-142.8,779.4l1.4,1c0.7-0.9,1.3-1.9,1.9-2.8l-1.4-0.9C-141.6,777.5-142.2,778.5-142.8,779.4z"/>
		<path class="st0" d="M-160.4,796.9l1,1.4c0.9-0.6,1.8-1.3,2.7-2l-1-1.3C-158.6,795.6-159.5,796.2-160.4,796.9z"/>
		<path class="st0" d="M-258,781.7c0.7,0.9,1.4,1.8,2.1,2.7l1.3-1.1c-0.7-0.9-1.4-1.7-2-2.6L-258,781.7z"/>
		<path class="st0" d="M-252.6,788.3c0.8,0.8,1.6,1.6,2.4,2.4l1.2-1.2c-0.8-0.8-1.6-1.6-2.3-2.4L-252.6,788.3z"/>
		<path class="st0" d="M-262.7,774.6c0.6,1,1.1,2,1.8,2.9l1.4-0.9c-0.6-0.9-1.2-1.9-1.7-2.8L-262.7,774.6z"/>
		<path class="st0" d="M-266.4,767c0.4,1,0.9,2.1,1.4,3.1l1.5-0.7c-0.5-1-0.9-2-1.4-3L-266.4,767z"/>
		<path class="st0" d="M-246.4,794.1c0.9,0.7,1.8,1.4,2.7,2.1l1-1.3c-0.9-0.7-1.7-1.4-2.6-2.1L-246.4,794.1z"/>
		<path class="st0" d="M-207.9,810.6c1.1,0.1,2.3,0.2,3.4,0.3l0.1-1.7c-1.1-0.1-2.2-0.2-3.3-0.3L-207.9,810.6z"/>
		<path class="st0" d="M-239.6,799.2c0.9,0.6,1.9,1.2,2.9,1.8l0.9-1.4c-1-0.6-1.9-1.2-2.8-1.8L-239.6,799.2z"/>
		<path class="st0" d="M-216.2,809.2c1.1,0.3,2.2,0.5,3.3,0.7l0.3-1.7c-1.1-0.2-2.2-0.4-3.3-0.7L-216.2,809.2z"/>
		<path class="st0" d="M-224.4,806.8c1.1,0.4,2.1,0.7,3.2,1.1l0.5-1.6c-1.1-0.3-2.1-0.7-3.2-1L-224.4,806.8z"/>
		<path class="st0" d="M-232.2,803.4c1,0.5,2,1,3.1,1.4l0.7-1.5c-1-0.4-2-0.9-3-1.4L-232.2,803.4z"/>
	</g>
	<text transform="matrix(1 0 0 1 -262.7999 747.9578)" class="st0" style="font-family:'LoveloLineLight'; font-size:24.3598px;">money back</text>
	<g>
		<path class="st0" d="M-200.8,846.6c-59.5,0-107.9-48.4-107.9-107.9s48.4-107.9,107.9-107.9s107.9,48.4,107.9,107.9
			S-141.3,846.6-200.8,846.6z M-200.8,633.6c-57.9,0-105.1,47.1-105.1,105.1c0,57.9,47.1,105.1,105.1,105.1
			c57.9,0,105.1-47.1,105.1-105.1C-95.7,680.8-142.9,633.6-200.8,633.6z"/>
	</g>
</g>
<g>
	<polygon class="st2" points="-1041.6,-306.5 -973,-281.6 -904.3,-256.6 -904.3,-206.7 -904.3,-156.9 -973,-131.9 -1041.6,-107 
		-1110.3,-131.9 -1178.9,-156.9 -1178.9,-206.7 -1178.9,-256.6 -1110.3,-281.6 	"/>
	<g>
		<path class="st0" d="M-1041.6-117.6l-0.4-0.2l-127-46v-85.8l127.4-46.3l0.4,0.2l126.9,46.1v85.8L-1041.6-117.6z M-1166.4-165.7
			l124.8,45.3l124.8-45.3v-82.2l-124.8-45.3l-124.8,45.4V-165.7z"/>
	</g>
	<text transform="matrix(1 0 0 1 -1090.1351 -238.6234)" class="st0" style="font-family:'ArialMT'; font-size:42.2601px;">100%</text>
	<g>
		<g>
			<g>
				<rect x="-1138.8" y="-241.9" class="st0" width="46" height="2.6"/>
			</g>
			<g>
				<rect x="-1120.9" y="-250.5" class="st0" width="28.1" height="2.6"/>
			</g>
			<g>
				<rect x="-1107.4" y="-259.2" class="st0" width="14.6" height="2.6"/>
			</g>
		</g>
		<g>
			<g>
				<rect x="-990.5" y="-241.9" class="st0" width="46" height="2.6"/>
			</g>
			<g>
				<rect x="-990.5" y="-250.5" class="st0" width="28.1" height="2.6"/>
			</g>
			<g>
				<rect x="-990.5" y="-259.2" class="st0" width="14.6" height="2.6"/>
			</g>
		</g>
	</g>
	<text transform="matrix(1 0 0 1 -1130.6664 -192.2836)" class="st0" style="font-family:'LoveloLineLight'; font-size:39.8678px;">Guarantee</text>
	<g>
		<g>
			<path class="st0" d="M-941.7-177.7h-95.5v-2.6h95.5V-177.7z M-1046.1-177.7h-95.5v-2.6h95.5V-177.7z"/>
		</g>
		<g>
			<path class="st0" d="M-1041.6-173.3c-3.2,0-5.8-2.6-5.8-5.8s2.6-5.8,5.8-5.8c3.2,0,5.8,2.6,5.8,5.8
				C-1035.9-175.8-1038.5-173.3-1041.6-173.3z M-1041.6-182.2c-1.7,0-3.2,1.4-3.2,3.2s1.4,3.2,3.2,3.2c1.7,0,3.2-1.4,3.2-3.2
				S-1039.9-182.2-1041.6-182.2z"/>
		</g>
	</g>
	<path id="SVGID_x5F_3_x5F_" class="st3" d="M-1128.5-180.3c16.2,12.8,49,21.5,86.9,21.5s70.7-8.7,86.9-21.5"/>
	<text transform="matrix(1 0 0 1 -1251.5 -363.9082)" style="font-family:'ArialMT'; font-size:12px;">  </text>
	<text transform="matrix(1 0 0 1 -1128.5166 -180.2861)" style="font-family:'ArialMT'; font-size:12px;"> </text>
	
		<text transform="matrix(1 0 0 1 -1126.0233 -177.9754)" class="st0" style="font-family:'ArialMT'; font-size:18.2021px; letter-spacing:48;">m</text>
	
		<text transform="matrix(1 0 0 1 -1063.9852 -159.7921)" class="st0" style="font-family:'ArialMT'; font-size:18.2021px; letter-spacing:48;">o</text>
	
		<text transform="matrix(1 0 0 1 -1004.042 -161.7614)" class="st0" style="font-family:'ArialMT'; font-size:18.2021px; letter-spacing:48;">n</text>
	<text transform="matrix(1 0 0 1 -1251.5 -363.9082)" style="font-family:'ArialMT'; font-size:12px;"> </text>
</g>
<g>
	<path class="st2" d="M-71.8-258.3v21.9h12.9v59.4h-12.9v9.2c-43,15.8-86,31.6-129,47.3c-43-15.8-86-31.6-129-47.3v-9.2h-12.9v-59.4
		h12.9v-21.9c7.1,0,12.8-5.7,12.8-12.8c0-1-0.1-2-0.3-3c106.5-25.2,126.6-25.2,233.2,0c-0.2,1-0.3,1.9-0.3,3
		C-84.6-264.1-78.8-258.3-71.8-258.3"/>
	<g>
		<path class="st0" d="M-200.8-130.7l-119.5-43.8v-7h4v4.2l115.5,42.4l115.5-42.4v-4.2h4v7L-200.8-130.7z M-81.3-232.7h-4v-15.8
			c-5.5-3.3-9.6-8.5-11.6-14.6c-30.9-7.3-69.1-16.3-103.9-16.3l0,0c-34.8,0-73,9-103.9,16.3c-1.9,6.1-6.1,11.3-11.6,14.6v15.8h-4
			v-18.2l1.1-0.6c5.4-2.9,9.4-8,11-13.9l0.3-1.2l1.2-0.3c31.3-7.4,70.2-16.7,105.9-16.7l0,0c35.7,0,74.7,9.2,106,16.7l1.2,0.3
			l0.3,1.2c1.6,5.9,5.6,11,11,13.9l1.1,0.6L-81.3-232.7L-81.3-232.7z"/>
	</g>
	<text transform="matrix(1 0 0 1 -327.3695 -190.5257)" class="st0" style="font-family:'LoveloLineLight'; font-size:48.7355px;">GUARANTEE</text>
	<text transform="matrix(1 0 0 1 -232.5804 -237.0809)" class="st0" style="font-family:'ArialMT'; font-size:14.717px;">356 DAYS</text>
	<g>
		<polygon class="st0" points="-303.2,-242.2 -274.4,-243 -245.6,-243.7 -245.6,-242.2 -245.6,-240.7 -274.4,-241.4 		"/>
		<polygon class="st0" points="-98.4,-242.2 -127.2,-243 -156,-243.7 -156,-242.2 -156,-240.7 -127.2,-241.4 		"/>
	</g>
	<g>
		<polygon class="st0" points="-200.8,-269.6 -199.3,-265 -194.5,-265 -198.4,-262.2 -196.9,-257.6 -200.8,-260.4 -204.7,-257.6 
			-203.2,-262.2 -207.1,-265 -202.3,-265 		"/>
		<polygon class="st0" points="-221.4,-265.9 -220.4,-262.7 -217,-262.7 -219.7,-260.8 -218.7,-257.6 -221.4,-259.6 -224.1,-257.6 
			-223.1,-260.8 -225.8,-262.7 -222.4,-262.7 		"/>
		<polygon class="st0" points="-180.2,-265.9 -179.2,-262.7 -175.8,-262.7 -178.6,-260.8 -177.5,-257.6 -180.2,-259.6 
			-182.9,-257.6 -181.9,-260.8 -184.6,-262.7 -181.3,-262.7 		"/>
	</g>
	<path id="SVGID_x5F_4_x5F_" class="st3" d="M-290.3-196c16.7,13.2,50.5,22.2,89.5,22.2s72.8-9,89.5-22.2"/>
	<text transform="matrix(1 0 0 1 -1251.5 -363.9082)" style="font-family:'ArialMT'; font-size:12px;">  </text>
	<text transform="matrix(1 0 0 1 -290.3162 -195.9868)" style="font-family:'ArialMT'; font-size:12px;"> </text>
	
		<text transform="matrix(1 0 0 1 -287.8328 -193.6615)" class="st0" style="font-family:'ArialMT'; font-size:18.7444px; letter-spacing:48;">m</text>
	
		<text transform="matrix(1 0 0 1 -225.4604 -174.9849)" class="st0" style="font-family:'ArialMT'; font-size:18.7444px; letter-spacing:48;">o</text>
	
		<text transform="matrix(1 0 0 1 -165.1921 -176.3712)" class="st0" style="font-family:'ArialMT'; font-size:18.7444px; letter-spacing:48;">n</text>
	<text transform="matrix(1 0 0 1 -1251.5 -363.9082)" style="font-family:'ArialMT'; font-size:12px;"> </text>
</g>
<g>
	<polygon class="st2" points="-621.3,-314.3 -559.9,-287.4 -498.6,-260.5 -498.6,-206.7 -498.6,-153 -559.9,-126.1 -621.3,-99.2 
		-682.6,-126.1 -743.9,-153 -743.9,-206.7 -743.9,-260.5 -682.6,-287.4 	"/>
	<text transform="matrix(1 0 0 1 -736.1687 -195.1126)" class="st0" style="font-family:'ArialMT'; font-size:33.3963px;">money back</text>
	<g>
		<path class="st0" d="M-621.3-108.4l-114.2-48.9v-27.2h5.6v23.5l108.6,46.4l108.6-46.4v-23.5h5.6v27.2L-621.3-108.4z M-507-229
			h-5.6v-23.5L-621.3-299l-108.6,46.4v23.5h-5.6v-27.2l114.2-48.8l114.2,48.8L-507-229L-507-229z"/>
	</g>
	<g>
		<path class="st0" d="M-690.8-257.6c1.3,0,2.3,1,2.3,2.3s-1,2.3-2.3,2.3s-2.3-1-2.3-2.3C-693-256.5-692-257.6-690.8-257.6"/>
		<path class="st0" d="M-551.7-257.6c1.3,0,2.3,1,2.3,2.3s-1,2.3-2.3,2.3s-2.3-1-2.3-2.3C-554-256.5-553-257.6-551.7-257.6"/>
	</g>
	<g>
		<path class="st0" d="M-697.2-165.8c1.3,0,2.3,1,2.3,2.3s-1,2.3-2.3,2.3s-2.3-1-2.3-2.3S-698.5-165.8-697.2-165.8"/>
		<path class="st0" d="M-545.3-165.8c1.3,0,2.3,1,2.3,2.3s-1,2.3-2.3,2.3s-2.3-1-2.3-2.3C-547.5-164.8-546.5-165.8-545.3-165.8"/>
	</g>
	<g>
		<g>
			<rect x="-712.8" y="-184.4" class="st0" width="183.2" height="2.8"/>
		</g>
		<g>
			<rect x="-657.2" y="-175.3" class="st0" width="71.9" height="2.8"/>
		</g>
		<g>
			<rect x="-712.8" y="-231.9" class="st0" width="183.2" height="2.8"/>
		</g>
		<g>
			<rect x="-657.2" y="-241" class="st0" width="71.9" height="2.8"/>
		</g>
	</g>
	<g>
		<path id="SVGID_x5F_5_x5F_" class="st3" d="M-522-231.9c-15.9-12.2-54.3-20.8-99.3-20.8s-83.4,8.6-99.3,20.8"/>
		<text transform="matrix(1 0 0 1 -1251.5 -363.9082)" style="font-family:'ArialMT'; font-size:12px;">   </text>
		<text transform="matrix(1 0 0 1 -521.9796 -231.9365)" style="font-family:'ArialMT'; font-size:12px;"> </text>
		
			<text transform="matrix(1 0 0 1 -524.5245 -234.2052)" class="st0" style="font-family:'ArialMT'; font-size:20.7102px; letter-spacing:48;">R</text>
		
			<text transform="matrix(1 0 0 1 -586.8688 -250.9674)" class="st0" style="font-family:'ArialMT'; font-size:20.7102px; letter-spacing:48;">I</text>
		
			<text transform="matrix(1 0 0 1 -642.556 -252.1298)" class="st0" style="font-family:'ArialMT'; font-size:20.7102px; letter-spacing:48;">S</text>
		
			<text transform="matrix(1 0 0 1 -705.1313 -240.4435)" class="st0" style="font-family:'ArialMT'; font-size:20.7102px; letter-spacing:48;">K</text>
		<text transform="matrix(1 0 0 1 -1251.5 -363.9082)" style="font-family:'ArialMT'; font-size:12px;"> </text>
	</g>
	<g>
		<path id="SVGID_x5F_6_x5F_" class="st3" d="M-701.3-172.5c19.6,6.9,48.2,11.2,80.1,11.2c31.9,0,60.5-4.4,80.1-11.2"/>
		<text transform="matrix(1 0 0 1 -1251.5 -363.9082)" style="font-family:'ArialMT'; font-size:12px;">   </text>
		<text transform="matrix(1 0 0 1 -701.3037 -172.4976)" style="font-family:'ArialMT'; font-size:12px;"> </text>
		
			<text transform="matrix(1 0 0 1 -698.1973 -171.2438)" class="st0" style="font-family:'ArialMT'; font-size:20.7102px; letter-spacing:48;">G</text>
		
			<text transform="matrix(1 0 0 1 -632.9846 -161.4257)" class="st0" style="font-family:'ArialMT'; font-size:20.7102px; letter-spacing:48;">U</text>
		
			<text transform="matrix(1 0 0 1 -568.255 -165.5757)" class="st0" style="font-family:'ArialMT'; font-size:20.7102px; letter-spacing:48;">A</text>
		<text transform="matrix(1 0 0 1 -1251.5 -363.9082)" style="font-family:'ArialMT'; font-size:12px;"> </text>
	</g>
</g>
<g>
	<path class="st2" d="M-1041.6-9.6c65,0,117.6,52.7,117.6,117.6c0,65-52.7,117.6-117.6,117.6c-65,0-117.6-52.7-117.6-117.6
		C-1159.3,43.1-1106.6-9.6-1041.6-9.6"/>
	<circle class="st2" cx="-1041.6" cy="108" r="108.2"/>
	<g>
		<path class="st0" d="M-1041.6,217.6c-60.4,0-109.6-49.2-109.6-109.6S-1102-1.6-1041.6-1.6S-932,47.6-932,108
			C-932,168.5-981.2,217.6-1041.6,217.6z M-1041.6,1.3c-58.9,0-106.8,47.9-106.8,106.8s47.9,106.7,106.8,106.7
			s106.8-47.9,106.8-106.8S-982.8,1.3-1041.6,1.3z"/>
	</g>
	<g>
		<ellipse class="st2" cx="-1041.6" cy="108" rx="98.8" ry="98.8"/>
	</g>
	<g>
		<path class="st0" d="M-1041.6,209c-55.6,0-100.9-45.3-100.9-100.9s45.3-100.9,100.9-100.9s100.9,45.3,100.9,100.9
			S-986,209-1041.6,209z M-1041.6,11.3c-53.3,0-96.7,43.4-96.7,96.7s43.4,96.7,96.7,96.7c53.3,0,96.7-43.4,96.7-96.7
			S-988.3,11.3-1041.6,11.3z"/>
	</g>
	<text transform="matrix(1 0 0 1 -1111.9167 118.1866)" class="st0" style="font-family:'LoveloLineLight'; font-size:27.613px;">money back</text>
	<g>
		<path class="st0" d="M-1082.6,84.4c1.1-2,3.6-2.6,5.6-1.5c0.8,0.5,1.3,1.2,1.6,2h14.8c5.2-4.2,11.7-6.7,18.9-6.7
			c7.2,0,13.8,2.5,18.9,6.7h14.8c0.3-0.8,0.9-1.5,1.6-2c2-1.1,4.5-0.5,5.6,1.5c0.1,0.1,0.1,0.3,0.2,0.5h11.4
			c-8.9-20.1-29.1-34.2-52.5-34.2s-43.6,14.1-52.5,34.2h11.4C-1082.7,84.7-1082.7,84.5-1082.6,84.4z M-1023.6,68.5
			c1.1-2,3.6-2.6,5.6-1.5s2.6,3.6,1.5,5.6s-3.6,2.6-5.6,1.5C-1024,73-1024.7,70.5-1023.6,68.5z M-1041.6,60.7c2.3,0,4.1,1.8,4.1,4.1
			s-1.8,4.1-4.1,4.1c-2.3,0-4.1-1.8-4.1-4.1S-1043.9,60.7-1041.6,60.7z M-1065.3,67c2-1.1,4.5-0.5,5.6,1.5s0.5,4.5-1.5,5.6
			s-4.5,0.5-5.6-1.5C-1067.9,70.7-1067.3,68.2-1065.3,67z"/>
		<path class="st0" d="M-1000.6,131.7c-1.1,2-3.6,2.6-5.6,1.5c-0.8-0.5-1.3-1.2-1.6-2h-14.8c-5.2,4.2-11.7,6.7-18.9,6.7
			s-13.8-2.5-18.9-6.7h-14.8c-0.3,0.8-0.9,1.5-1.6,2c-2,1.1-4.5,0.5-5.6-1.5c-0.1-0.1-0.1-0.3-0.2-0.5h-11.4
			c8.9,20.1,29.1,34.2,52.5,34.2s43.6-14.1,52.5-34.2h-11.5C-1000.5,131.4-1000.6,131.6-1000.6,131.7z M-1059.7,147.6
			c-1.1,2-3.6,2.6-5.6,1.5s-2.6-3.6-1.5-5.6s3.6-2.6,5.6-1.5C-1059.3,143.1-1058.6,145.6-1059.7,147.6z M-1041.6,155.4
			c-2.3,0-4.1-1.8-4.1-4.1s1.8-4.1,4.1-4.1c2.3,0,4.1,1.8,4.1,4.1S-1039.4,155.4-1041.6,155.4z M-1018,149.1c-2,1.1-4.5,0.5-5.6-1.5
			s-0.5-4.5,1.5-5.6s4.5-0.5,5.6,1.5C-1015.3,145.4-1016,147.9-1018,149.1z"/>
	</g>
	<g>
		<path id="SVGID_x5F_7_x5F_" class="st3" d="M-975.8,84.7c-9.6-27.1-35.4-46.6-65.8-46.6s-56.2,19.5-65.8,46.6"/>
		<text transform="matrix(1 0 0 1 -1251.5 -363.9082)" style="font-family:'ArialMT'; font-size:12px;">   </text>
		<text transform="matrix(1 0 0 1 -975.7813 84.6849)" style="font-family:'ArialMT'; font-size:12px;"> </text>
		
			<text transform="matrix(1 0 0 1 -976.6812 81.4272)" class="st0" style="font-family:'ArialMT'; font-size:17.7669px; letter-spacing:198;">G</text>
		<text transform="matrix(1 0 0 1 -1251.5 -363.9082)" style="font-family:'ArialMT'; font-size:12px;"> </text>
	</g>
	<g>
		<path id="SVGID_x5F_8_x5F_" class="st3" d="M-1103.6,140.3c11.7,22.4,35,37.7,62,37.7s50.3-15.3,62-37.7"/>
		<text transform="matrix(1 0 0 1 -1251.5 -363.9082)" style="font-family:'ArialMT'; font-size:12px;">   </text>
		<text transform="matrix(1 0 0 1 -1103.6173 140.3011)" style="font-family:'ArialMT'; font-size:12px;"> </text>
		
			<text transform="matrix(1 0 0 1 -1102.2292 143.371)" class="st0" style="font-family:'ArialMT'; font-size:17.7669px; letter-spacing:198;">R</text>
		<text transform="matrix(1 0 0 1 -1251.5 -363.9082)" style="font-family:'ArialMT'; font-size:12px;"> </text>
	</g>
</g>
<g>
	<ellipse class="st0" cx="-200.8" cy="423.7" rx="115" ry="115"/>
	<g>
		<path class="st2" d="M-200.8,540.1c-64.2,0-116.4-52.2-116.4-116.4s52.2-116.4,116.4-116.4s116.4,52.2,116.4,116.4
			S-136.6,540.1-200.8,540.1z M-200.8,310.1c-62.6,0-113.6,51-113.6,113.6s51,113.6,113.6,113.6s113.6-51,113.6-113.6
			C-87.2,361.1-138.2,310.1-200.8,310.1z"/>
	</g>
	<path class="st2" d="M-200.8,314.6c60.2,0,109.1,48.9,109.1,109.1s-48.9,109.1-109.1,109.1s-109.1-48.9-109.1-109.1
		S-261,314.6-200.8,314.6"/>
	
		<text transform="matrix(0.9848 0.1736 -0.1736 0.9848 -206.4429 347.0698)" class="st0" style="font-family:'ArialMT'; font-size:31.0469px;"> </text>
	<path class="st0" d="M-200.8,360.8c35.7,0,64.7,29,64.7,64.7s-29,64.7-64.7,64.7s-64.7-29-64.7-64.7
		C-265.5,389.7-236.5,360.8-200.8,360.8"/>
	<g>
		<path class="st0" d="M-293.9,419.6c2.3,0,4.1,1.9,4.1,4.1c0,2.3-1.9,4.1-4.1,4.1c-2.3,0-4.1-1.9-4.1-4.1
			C-298,421.4-296.2,419.6-293.9,419.6"/>
		<path class="st0" d="M-107.7,419.6c2.3,0,4.1,1.9,4.1,4.1c0,2.3-1.9,4.1-4.1,4.1c-2.3,0-4.1-1.9-4.1-4.1
			C-111.9,421.4-110,419.6-107.7,419.6"/>
	</g>
	<text transform="matrix(1 0 0 1 -242.2198 434.7293)" class="st2" style="font-family:'LoveloLineLight'; font-size:53.8198px;">356</text>
	
		<text transform="matrix(1 0 0 1 -232.255 454.9421)" class="st2" style="font-family:'ArialMT'; font-size:21.1915px; letter-spacing:2;">DAYS</text>
	<g>
		<path class="st2" d="M-201.1,485.6c-1.9,0-3.9-0.1-5.7-0.3l0.3-2.8c1.8,0.2,3.6,0.3,5.5,0.3L-201.1,485.6z M-198.3,485.6l-0.1-2.8
			c1.8-0.1,3.7-0.2,5.5-0.5l0.4,2.8C-194.4,485.3-196.4,485.5-198.3,485.6z M-209.7,485c-1.9-0.3-3.8-0.7-5.6-1.1l0.7-2.7
			c1.8,0.4,3.6,0.8,5.4,1.1L-209.7,485z M-189.7,484.6l-0.5-2.8c1.8-0.3,3.6-0.8,5.3-1.3l0.8,2.7
			C-186,483.8-187.9,484.3-189.7,484.6z M-218.1,483.1c-1.8-0.5-3.6-1.2-5.4-1.9l1.1-2.6c1.7,0.7,3.4,1.3,5.2,1.8L-218.1,483.1z
			 M-181.4,482.4l-0.9-2.7c1.7-0.6,3.4-1.3,5.1-2l1.2,2.6C-177.8,481.1-179.6,481.8-181.4,482.4z M-226.2,480
			c-1.7-0.8-3.4-1.7-5.1-2.7l1.4-2.4c1.6,0.9,3.2,1.8,4.8,2.5L-226.2,480z M-173.5,479.1l-1.3-2.5c1.6-0.8,3.2-1.7,4.7-2.7l1.5,2.4
			C-170.1,477.3-171.8,478.2-173.5,479.1z M-233.7,475.9c-1.6-1-3.1-2.2-4.6-3.4l1.7-2.2c1.4,1.1,2.9,2.2,4.4,3.2L-233.7,475.9z
			 M-166.1,474.6l-1.6-2.3c1.5-1.1,2.9-2.2,4.3-3.4l1.8,2.1C-163,472.4-164.6,473.5-166.1,474.6z M-240.5,470.7
			c-1.4-1.3-2.8-2.6-4.1-4l2-1.9c1.2,1.3,2.6,2.6,3.9,3.8L-240.5,470.7z M-159.5,469.2l-1.9-2c1.3-1.3,2.6-2.6,3.8-3.9l2.1,1.8
			C-156.8,466.5-158.1,467.9-159.5,469.2z M-246.6,464.5c-1.2-1.5-2.4-3-3.5-4.5l2.3-1.6c1,1.5,2.2,2.9,3.4,4.3L-246.6,464.5z
			 M-153.7,462.9l-2.2-1.7c1.1-1.4,2.2-2.9,3.2-4.4l2.3,1.5C-151.4,459.8-152.5,461.4-153.7,462.9z M-251.7,457.6
			c-1-1.6-2-3.3-2.8-5l2.5-1.3c0.8,1.6,1.7,3.2,2.7,4.8L-251.7,457.6z M-148.8,455.8l-2.4-1.4c0.9-1.6,1.8-3.2,2.5-4.9l2.5,1.2
			C-147,452.4-147.8,454.1-148.8,455.8z M-255.7,450.1c-0.8-1.7-1.5-3.5-2.1-5.3l2.7-0.9c0.6,1.7,1.3,3.4,2,5.1L-255.7,450.1z
			 M-145,448l-2.6-1.1c0.7-1.7,1.3-3.4,1.8-5.2l2.7,0.8C-143.7,444.4-144.3,446.3-145,448z M-258.7,442c-0.5-1.8-1-3.7-1.3-5.6
			l2.8-0.5c0.3,1.8,0.7,3.6,1.2,5.3L-258.7,442z M-142.4,439.8l-2.7-0.7c0.4-1.8,0.8-3.6,1-5.4l2.8,0.4
			C-141.5,436.1-141.9,438-142.4,439.8z M-260.4,433.6c-0.3-1.9-0.4-3.8-0.5-5.7l2.8-0.1c0.1,1.8,0.2,3.7,0.5,5.5L-260.4,433.6z
			 M-140.9,431.4l-2.8-0.3c0.2-1.8,0.3-3.6,0.3-5.5h2.8C-140.6,427.6-140.7,429.5-140.9,431.4z M-258.2,425h-2.8
			c0-1.9,0.1-3.9,0.3-5.7l2.8,0.3C-258,421.3-258.1,423.2-258.2,425z M-143.5,422.9c-0.1-1.8-0.2-3.6-0.5-5.4l2.8-0.4
			c0.3,1.9,0.4,3.8,0.5,5.7L-143.5,422.9z M-257.5,416.8l-2.8-0.4c0.3-1.9,0.7-3.8,1.1-5.6l2.7,0.7
			C-256.9,413.2-257.2,415-257.5,416.8z M-144.4,414.8c-0.3-1.8-0.8-3.6-1.3-5.3l2.7-0.8c0.5,1.8,1,3.7,1.3,5.6L-144.4,414.8z
			 M-255.7,408.8l-2.7-0.8c0.5-1.8,1.2-3.6,1.9-5.4l2.6,1.1C-254.6,405.4-255.2,407.1-255.7,408.8z M-146.5,406.8
			c-0.6-1.7-1.3-3.4-2-5.1l2.6-1.2c0.8,1.7,1.5,3.5,2.1,5.3L-146.5,406.8z M-252.8,401.2l-2.5-1.2c0.8-1.7,1.7-3.4,2.7-5.1l2.4,1.4
			C-251.1,397.9-252,399.5-252.8,401.2z M-149.8,399.3c-0.8-1.6-1.7-3.2-2.7-4.7l2.4-1.5c1,1.6,2,3.3,2.9,5L-149.8,399.3z
			 M-248.8,394l-2.3-1.5c1-1.6,2.2-3.2,3.4-4.6l2.2,1.8C-246.7,391-247.8,392.5-248.8,394z M-154,392.3c-1-1.5-2.2-2.9-3.4-4.3
			l2.1-1.8c1.3,1.4,2.4,3,3.5,4.5L-154,392.3z M-243.8,387.5l-2.1-1.9c1.3-1.4,2.6-2.8,4-4.1l1.9,2
			C-241.3,384.8-242.6,386.1-243.8,387.5z M-159.2,386c-1.2-1.3-2.6-2.6-4-3.8l1.8-2.1c1.4,1.3,2.8,2.6,4.1,4L-159.2,386z
			 M-237.9,381.7l-1.8-2.1c1.4-1.2,3-2.4,4.5-3.5l1.6,2.3C-235.1,379.5-236.5,380.6-237.9,381.7z M-165.3,380.4
			c-1.4-1.1-2.9-2.2-4.5-3.2l1.5-2.4c1.6,1,3.2,2.2,4.7,3.3L-165.3,380.4z M-231.3,376.9l-1.5-2.4c1.6-1,3.3-2,5-2.8l1.3,2.5
			C-228.2,375-229.8,375.9-231.3,376.9z M-172.1,375.8c-1.6-0.9-3.2-1.8-4.9-2.5l1.2-2.5c1.7,0.8,3.4,1.7,5.1,2.6L-172.1,375.8z
			 M-224.1,373l-1.1-2.6c1.8-0.8,3.6-1.5,5.3-2.1l0.9,2.7C-220.7,371.6-222.4,372.3-224.1,373z M-179.4,372.2
			c-1.7-0.7-3.4-1.3-5.2-1.8l0.8-2.7c1.8,0.5,3.6,1.2,5.4,1.9L-179.4,372.2z M-216.4,370.3l-0.8-2.7c1.8-0.5,3.7-1,5.6-1.3l0.5,2.8
			C-212.8,369.3-214.6,369.8-216.4,370.3z M-187.3,369.7c-1.8-0.4-3.6-0.8-5.4-1l0.4-2.8c1.9,0.3,3.8,0.6,5.6,1.1L-187.3,369.7z
			 M-208.4,368.6l-0.4-2.8c1.9-0.2,3.8-0.4,5.7-0.5l0.1,2.8C-204.7,368.2-206.6,368.4-208.4,368.6z M-195.3,368.4
			c-1.8-0.2-3.6-0.3-5.5-0.3v-2.8c1.9,0,3.8,0.1,5.7,0.3L-195.3,368.4z"/>
	</g>
	<g>
		<polygon class="st2" points="-200.8,376 -199.2,381.1 -193.8,381.1 -198.1,384.2 -196.5,389.3 -200.8,386.2 -205.1,389.3 
			-203.5,384.2 -207.8,381.1 -202.4,381.1 		"/>
		<polygon class="st2" points="-218.2,379.8 -217,383.4 -213.2,383.4 -216.3,385.7 -215.1,389.3 -218.2,387.1 -221.3,389.3 
			-220.1,385.7 -223.2,383.4 -219.4,383.4 		"/>
		<polygon class="st2" points="-183.4,379.8 -182.2,383.4 -178.4,383.4 -181.5,385.7 -180.3,389.3 -183.4,387.1 -186.5,389.3 
			-185.3,385.7 -188.4,383.4 -184.6,383.4 		"/>
		<polygon class="st2" points="-200.8,461.6 -199.2,466.7 -193.8,466.7 -198.1,469.9 -196.5,474.9 -200.8,471.8 -205.1,474.9 
			-203.5,469.9 -207.8,466.7 -202.4,466.7 		"/>
		<polygon class="st2" points="-218.2,461.6 -217,465.3 -213.2,465.3 -216.3,467.5 -215.1,471.1 -218.2,468.9 -221.3,471.1 
			-220.1,467.5 -223.2,465.3 -219.4,465.3 		"/>
		<polygon class="st2" points="-183.4,461.6 -182.2,465.3 -178.4,465.3 -181.5,467.5 -180.3,471.1 -183.4,468.9 -186.5,471.1 
			-185.3,467.5 -188.4,465.3 -184.6,465.3 		"/>
	</g>
	<g>
		<path id="SVGID_x5F_9_x5F_" class="st3" d="M-123.2,418.1c-2.9-40.4-36.5-72.3-77.6-72.3s-74.7,31.9-77.6,72.3"/>
		<text transform="matrix(1 0 0 1 -1251.5 -363.9082)" style="font-family:'ArialMT'; font-size:12px;">   </text>
		<text transform="matrix(1 0 0 1 -123.1824 418.0903)" style="font-family:'ArialMT'; font-size:12px;"> </text>
		
			<text transform="matrix(1 0 0 1 -122.4607 414.5326)" class="st0" style="font-family:'ArialMT'; font-size:31.0471px; letter-spacing:73;">M</text>
		
			<text transform="matrix(1 0 0 1 -188.3083 345.8563)" class="st0" style="font-family:'ArialMT'; font-size:31.0471px; letter-spacing:73;">O</text>
		
			<text transform="matrix(1 0 0 1 -271.3607 388.9981)" class="st0" style="font-family:'ArialMT'; font-size:31.0471px; letter-spacing:73;">N</text>
		<text transform="matrix(1 0 0 1 -1251.5 -363.9082)" style="font-family:'ArialMT'; font-size:12px;"> </text>
	</g>
	<g>
		<path id="SVGID_x5F_10_x5F_" class="st3" d="M-278.5,423.2c2,41.2,36,74.1,77.7,74.1s75.7-32.8,77.7-74.1"/>
		<text transform="matrix(1 0 0 1 -1251.5 -363.9082)" style="font-family:'ArialMT'; font-size:12px;">   </text>
		<text transform="matrix(1 0 0 1 -278.5176 423.1929)" style="font-family:'ArialMT'; font-size:12px;"> </text>
		
			<text transform="matrix(1 0 0 1 -279.1884 426.6986)" class="st0" style="font-family:'ArialMT'; font-size:31.0471px; letter-spacing:148;">G</text>
		
			<text transform="matrix(1 0 0 1 -146.6956 476.4836)" class="st0" style="font-family:'ArialMT'; font-size:31.0471px; letter-spacing:148;">U</text>
		<text transform="matrix(1 0 0 1 -1251.5 -363.9082)" style="font-family:'ArialMT'; font-size:12px;"> </text>
	</g>
</g>
<g>
	<path class="st2" d="M-1041.6,306.1c7.3,0,9.2,13.2,16.4,14.4c7.2,1.1,13.1-10.8,20-8.6c6.9,2.2,4.7,15.4,11.1,18.7
		c6.5,3.3,15.8-6.3,21.7-2s-0.3,16.1,4.8,21.2c5.1,5.1,17-1.1,21.2,4.8c4.3,5.9-5.3,15.2-2,21.7s16.5,4.2,18.7,11.1
		s-9.7,12.8-8.6,20s14.4,9.1,14.4,16.4c0,7.3-13.2,9.2-14.4,16.4c-1.1,7.2,10.8,13.1,8.6,20c-2.2,6.9-15.4,4.7-18.7,11.1
		c-3.3,6.5,6.3,15.8,2,21.7s-16.1-0.3-21.2,4.8s1.1,17-4.8,21.2c-5.9,4.3-15.2-5.3-21.7-2s-4.2,16.5-11.1,18.7s-12.8-9.7-20-8.6
		c-7.2,1.1-9.1,14.4-16.4,14.4s-9.2-13.2-16.4-14.4c-7.2-1.1-13.1,10.8-20,8.6s-4.7-15.4-11.1-18.7c-6.5-3.3-15.8,6.3-21.7,2
		c-5.9-4.3,0.3-16.1-4.8-21.2c-5.1-5.1-17,1.1-21.2-4.8c-4.3-5.9,5.3-15.2,2-21.7s-16.5-4.2-18.7-11.1c-2.2-6.9,9.7-12.8,8.6-20
		s-14.4-9.1-14.4-16.4c0-7.3,13.2-9.2,14.4-16.4c1.1-7.2-10.8-13.1-8.6-20s15.4-4.7,18.7-11.1c3.3-6.5-6.3-15.8-2-21.7
		c4.3-5.9,16.1,0.3,21.2-4.8s-1.1-17,4.8-21.2c5.9-4.3,15.2,5.3,21.7,2s4.2-16.5,11.1-18.7s12.8,9.7,20,8.6
		C-1050.8,319.3-1048.9,306.1-1041.6,306.1"/>
	<g>
		<path class="st0" d="M-1040.9,517.8v-1.2c0.8,0,1.6,0,2.4,0v1.2C-1039.3,517.8-1040.1,517.8-1040.9,517.8z M-1044.5,517.8
			c-0.8,0-1.6-0.1-2.4-0.1l0.1-1.2c0.8,0,1.6,0.1,2.4,0.1L-1044.5,517.8z M-1034.8,517.6l-0.1-1.2c0.8-0.1,1.6-0.1,2.4-0.2l0.1,1.2
			C-1033.2,517.4-1034,517.5-1034.8,517.6z M-1050.6,517.4c-0.8-0.1-1.6-0.2-2.4-0.3l0.1-1.2c0.8,0.1,1.6,0.2,2.4,0.3L-1050.6,517.4
			z M-1028.7,516.9l-0.2-1.2c0.8-0.1,1.6-0.2,2.4-0.4l0.2,1.2C-1027.1,516.7-1027.9,516.8-1028.7,516.9z M-1056.7,516.6
			c-0.8-0.1-1.6-0.3-2.4-0.4l0.2-1.2c0.8,0.1,1.6,0.3,2.4,0.4L-1056.7,516.6z M-1022.7,515.9l-0.2-1.2c0.8-0.2,1.6-0.3,2.3-0.5
			l0.3,1.2C-1021.1,515.6-1021.9,515.7-1022.7,515.9z M-1062.6,515.5c-0.8-0.2-1.6-0.4-2.4-0.6l0.3-1.2c0.8,0.2,1.5,0.4,2.3,0.6
			L-1062.6,515.5z M-1016.8,514.5l-0.3-1.2c0.8-0.2,1.5-0.4,2.3-0.7l0.4,1.2C-1015.2,514.1-1016,514.3-1016.8,514.5z M-1068.5,513.9
			c-0.8-0.2-1.5-0.5-2.3-0.7l0.4-1.1c0.8,0.2,1.5,0.5,2.3,0.7L-1068.5,513.9z M-1011,512.7l-0.4-1.1c0.8-0.3,1.5-0.5,2.3-0.8
			l0.4,1.1C-1009.5,512.2-1010.2,512.4-1011,512.7z M-1074.3,512c-0.8-0.3-1.5-0.6-2.3-0.9l0.4-1.1c0.7,0.3,1.5,0.6,2.2,0.9
			L-1074.3,512z M-1005.3,510.5l-0.5-1.1c0.7-0.3,1.5-0.6,2.2-1l0.5,1.1C-1003.8,509.9-1004.6,510.2-1005.3,510.5z M-1080,509.7
			c-0.7-0.3-1.5-0.7-2.2-1l0.5-1.1c0.7,0.3,1.4,0.7,2.2,1L-1080,509.7z M-999.8,508l-0.5-1.1c0.7-0.4,1.4-0.7,2.1-1.1l0.6,1.1
			C-998.3,507.3-999,507.6-999.8,508z M-1085.5,507c-0.7-0.4-1.4-0.8-2.1-1.2l0.6-1.1c0.7,0.4,1.4,0.8,2.1,1.1L-1085.5,507z
			 M-994.4,505.1l-0.6-1c0.7-0.4,1.4-0.8,2.1-1.2l0.6,1C-993,504.3-993.7,504.7-994.4,505.1z M-1090.8,504c-0.7-0.4-1.4-0.9-2.1-1.3
			l0.7-1c0.7,0.4,1.3,0.9,2,1.3L-1090.8,504z M-989.3,501.9l-0.7-1c0.7-0.4,1.3-0.9,2-1.4l0.7,1C-987.9,501-988.6,501.4-989.3,501.9
			z M-1095.9,500.6c-0.7-0.5-1.3-0.9-2-1.4l0.7-1c0.6,0.5,1.3,0.9,1.9,1.4L-1095.9,500.6z M-984.3,498.3l-0.7-1
			c0.6-0.5,1.3-1,1.9-1.5l0.8,0.9C-983.1,497.3-983.7,497.8-984.3,498.3z M-1100.7,497c-0.6-0.5-1.3-1-1.9-1.6l0.8-0.9
			c0.6,0.5,1.2,1,1.8,1.5L-1100.7,497z M-979.6,494.5l-0.8-0.9c0.6-0.5,1.2-1.1,1.8-1.6l0.8,0.9C-978.4,493.4-979,493.9-979.6,494.5
			z M-1105.3,493c-0.6-0.5-1.2-1.1-1.8-1.7l0.8-0.9c0.6,0.6,1.2,1.1,1.7,1.6L-1105.3,493z M-975.2,490.3l-0.9-0.9
			c0.6-0.6,1.1-1.1,1.7-1.7l0.9,0.8C-974,489.2-974.6,489.7-975.2,490.3z M-1109.7,488.7c-0.6-0.6-1.1-1.2-1.7-1.8l0.9-0.8
			c0.5,0.6,1.1,1.2,1.6,1.8L-1109.7,488.7z M-971,485.9l-0.9-0.8c0.5-0.6,1.1-1.2,1.6-1.8l0.9,0.8
			C-969.9,484.7-970.5,485.3-971,485.9z M-1113.7,484.2c-0.5-0.6-1-1.2-1.5-1.9l0.9-0.8c0.5,0.6,1,1.2,1.5,1.9L-1113.7,484.2z
			 M-967.1,481.2l-1-0.7c0.5-0.6,1-1.3,1.4-1.9l1,0.7C-966.2,479.9-966.6,480.5-967.1,481.2z M-1117.5,479.4c-0.5-0.6-1-1.3-1.4-2
			l1-0.7c0.5,0.7,0.9,1.3,1.4,1.9L-1117.5,479.4z M-963.6,476.2l-1-0.7c0.4-0.7,0.9-1.3,1.3-2l1,0.7
			C-962.7,474.9-963.1,475.6-963.6,476.2z M-1120.9,474.4c-0.4-0.7-0.9-1.4-1.3-2.1l1-0.6c0.4,0.7,0.8,1.4,1.3,2L-1120.9,474.4z
			 M-960.3,471.1l-1-0.6c0.4-0.7,0.8-1.4,1.2-2.1l1.1,0.6C-959.5,469.7-959.9,470.4-960.3,471.1z M-1124.1,469.1
			c-0.4-0.7-0.8-1.4-1.1-2.1l1.1-0.6c0.4,0.7,0.7,1.4,1.1,2.1L-1124.1,469.1z M-957.4,465.7l-1.1-0.5c0.4-0.7,0.7-1.4,1-2.2l1.1,0.5
			C-956.7,464.2-957.1,465-957.4,465.7z M-1126.8,463.7c-0.3-0.7-0.7-1.5-1-2.2l1.1-0.5c0.3,0.7,0.6,1.5,1,2.2L-1126.8,463.7z
			 M-954.9,460.1l-1.1-0.5c0.3-0.7,0.6-1.5,0.9-2.2l1.1,0.4C-954.2,458.6-954.5,459.4-954.9,460.1z M-1129.2,458.2
			c-0.3-0.8-0.6-1.5-0.9-2.3l1.1-0.4c0.3,0.8,0.6,1.5,0.8,2.2L-1129.2,458.2z M-952.7,454.4l-1.1-0.4c0.3-0.8,0.5-1.5,0.8-2.3
			l1.2,0.4C-952.2,452.9-952.4,453.7-952.7,454.4z M-1131.3,452.4c-0.2-0.8-0.5-1.5-0.7-2.3l1.2-0.3c0.2,0.8,0.5,1.5,0.7,2.3
			L-1131.3,452.4z M-950.9,448.6l-1.2-0.3c0.2-0.8,0.4-1.5,0.6-2.3l1.2,0.3C-950.5,447.1-950.7,447.8-950.9,448.6z M-1132.9,446.6
			c-0.2-0.8-0.4-1.6-0.6-2.4l1.2-0.3c0.2,0.8,0.4,1.6,0.6,2.3L-1132.9,446.6z M-949.5,442.7l-1.2-0.2c0.2-0.8,0.3-1.6,0.5-2.4
			l1.2,0.2C-949.2,441.1-949.3,441.9-949.5,442.7z M-1134.2,440.6c-0.1-0.8-0.3-1.6-0.4-2.4l1.2-0.2c0.1,0.8,0.3,1.6,0.4,2.4
			L-1134.2,440.6z M-948.4,436.7l-1.2-0.2c0.1-0.8,0.2-1.6,0.3-2.4l1.2,0.1C-948.2,435.1-948.3,435.9-948.4,436.7z M-1135.1,434.6
			c-0.1-0.8-0.2-1.6-0.2-2.4l1.2-0.1c0.1,0.8,0.2,1.6,0.2,2.4L-1135.1,434.6z M-947.8,430.6l-1.2-0.1c0.1-0.8,0.1-1.6,0.1-2.4
			l1.2,0.1C-947.7,429-947.7,429.8-947.8,430.6z M-1135.6,428.5c0-0.8-0.1-1.6-0.1-2.4h1.2c0,0.8,0,1.6,0.1,2.4H-1135.6z
			 M-947.6,424.5h-1.2v-0.8c0-0.5,0-1.1,0-1.6h1.2c0,0.5,0,1.1,0,1.6V424.5z M-1134.5,422.4h-1.2c0-0.8,0-1.6,0.1-2.4h1.2
			C-1134.5,420.8-1134.5,421.6-1134.5,422.4z M-948.9,418.5c0-0.8-0.1-1.6-0.2-2.4l1.2-0.1c0.1,0.8,0.1,1.6,0.2,2.4L-948.9,418.5z
			 M-1134.2,416.4l-1.2-0.1c0.1-0.8,0.1-1.6,0.2-2.4l1.2,0.1C-1134.1,414.8-1134.2,415.6-1134.2,416.4z M-949.4,412.5
			c-0.1-0.8-0.2-1.6-0.3-2.4l1.2-0.2c0.1,0.8,0.2,1.6,0.3,2.4L-949.4,412.5z M-1133.6,410.4l-1.2-0.2c0.1-0.8,0.2-1.6,0.4-2.4
			l1.2,0.2C-1133.4,408.9-1133.5,409.7-1133.6,410.4z M-950.3,406.6c-0.1-0.8-0.3-1.6-0.5-2.3l1.2-0.3c0.2,0.8,0.3,1.6,0.5,2.4
			L-950.3,406.6z M-1132.5,404.5l-1.2-0.2c0.2-0.8,0.3-1.6,0.5-2.4l1.2,0.3C-1132.2,403-1132.4,403.7-1132.5,404.5z M-951.6,400.7
			c-0.2-0.8-0.4-1.5-0.6-2.3l1.2-0.3c0.2,0.8,0.4,1.6,0.6,2.3L-951.6,400.7z M-1131.1,398.7l-1.2-0.3c0.2-0.8,0.4-1.6,0.7-2.3
			l1.2,0.4C-1130.7,397.2-1130.9,397.9-1131.1,398.7z M-953.3,394.9c-0.2-0.8-0.5-1.5-0.8-2.3l1.1-0.4c0.3,0.8,0.5,1.5,0.8,2.3
			L-953.3,394.9z M-1129.3,392.9l-1.1-0.4c0.3-0.8,0.6-1.5,0.8-2.3l1.1,0.4C-1128.8,391.4-1129,392.2-1129.3,392.9z M-955.3,389.3
			c-0.3-0.7-0.6-1.5-0.9-2.2l1.1-0.5c0.3,0.7,0.6,1.5,0.9,2.2L-955.3,389.3z M-1127.1,387.3l-1.1-0.5c0.3-0.7,0.6-1.5,1-2.2l1.1,0.5
			C-1126.5,385.9-1126.8,386.6-1127.1,387.3z M-957.8,383.8c-0.3-0.7-0.7-1.4-1.1-2.1l1.1-0.5c0.4,0.7,0.7,1.4,1.1,2.2L-957.8,383.8
			z M-1124.6,381.9l-1.1-0.5c0.4-0.7,0.7-1.4,1.1-2.2l1.1,0.6C-1123.9,380.4-1124.2,381.1-1124.6,381.9z M-960.5,378.5
			c-0.4-0.7-0.8-1.4-1.2-2.1l1-0.6c0.4,0.7,0.8,1.4,1.2,2.1L-960.5,378.5z M-1121.7,376.6l-1-0.6c0.4-0.7,0.8-1.4,1.3-2.1l1,0.6
			C-1120.9,375.2-1121.3,375.9-1121.7,376.6z M-963.6,373.3c-0.4-0.7-0.9-1.3-1.3-2l1-0.7c0.5,0.7,0.9,1.3,1.3,2L-963.6,373.3z
			 M-1118.5,371.5l-1-0.7c0.5-0.7,0.9-1.3,1.4-2l1,0.7C-1117.6,370.2-1118,370.8-1118.5,371.5z M-967,368.4c-0.5-0.6-1-1.3-1.4-1.9
			l1-0.7c0.5,0.6,1,1.3,1.5,1.9L-967,368.4z M-1114.9,366.6l-1-0.7c0.5-0.6,1-1.3,1.5-1.9l0.9,0.8
			C-1113.9,365.4-1114.4,366-1114.9,366.6z M-970.8,363.7c-0.5-0.6-1-1.2-1.6-1.8l0.9-0.8c0.5,0.6,1.1,1.2,1.6,1.8L-970.8,363.7z
			 M-1111.1,362l-0.9-0.8c0.5-0.6,1.1-1.2,1.6-1.8l0.9,0.8C-1110,360.8-1110.5,361.4-1111.1,362z M-974.8,359.2
			c-0.6-0.6-1.1-1.1-1.7-1.7l0.8-0.9c0.6,0.6,1.1,1.1,1.7,1.7L-974.8,359.2z M-1106.9,357.7l-0.8-0.9c0.6-0.6,1.2-1.1,1.7-1.7
			l0.8,0.9C-1105.8,356.5-1106.4,357.1-1106.9,357.7z M-979.1,355c-0.6-0.5-1.2-1.1-1.8-1.6l0.8-0.9c0.6,0.5,1.2,1.1,1.8,1.6
			L-979.1,355z M-1102.5,353.6l-0.8-0.9c0.6-0.5,1.2-1,1.8-1.6l0.8,0.9C-1101.3,352.5-1101.9,353-1102.5,353.6z M-983.7,351.1
			c-0.6-0.5-1.3-1-1.9-1.5l0.7-1c0.6,0.5,1.3,1,1.9,1.5L-983.7,351.1z M-1097.9,349.8l-0.7-1c0.6-0.5,1.3-1,1.9-1.4l0.7,1
			C-1096.6,348.8-1097.2,349.3-1097.9,349.8z M-988.5,347.5c-0.7-0.5-1.3-0.9-2-1.3l0.7-1c0.7,0.4,1.3,0.9,2,1.4L-988.5,347.5z
			 M-1093,346.3l-0.7-1c0.7-0.4,1.3-0.9,2-1.3l0.6,1C-1091.6,345.4-1092.3,345.8-1093,346.3z M-993.6,344.2
			c-0.7-0.4-1.4-0.8-2.1-1.2l0.6-1.1c0.7,0.4,1.4,0.8,2.1,1.2L-993.6,344.2z M-1087.9,343.1l-0.6-1c0.7-0.4,1.4-0.8,2.1-1.2l0.6,1.1
			C-1086.5,342.3-1087.2,342.7-1087.9,343.1z M-998.8,341.3c-0.7-0.4-1.4-0.7-2.1-1.1l0.5-1.1c0.7,0.4,1.5,0.7,2.2,1.1L-998.8,341.3
			z M-1082.6,340.3l-0.5-1.1c0.7-0.4,1.5-0.7,2.2-1l0.5,1.1C-1081.1,339.6-1081.8,340-1082.6,340.3z M-1004.2,338.7
			c-0.7-0.3-1.5-0.6-2.2-0.9l0.5-1.1c0.8,0.3,1.5,0.6,2.2,0.9L-1004.2,338.7z M-1077.1,337.8l-0.5-1.1c0.7-0.3,1.5-0.6,2.3-0.9
			l0.4,1.1C-1075.6,337.2-1076.4,337.5-1077.1,337.8z M-1009.8,336.4c-0.8-0.3-1.5-0.5-2.3-0.8l0.4-1.1c0.8,0.3,1.5,0.5,2.3,0.8
			L-1009.8,336.4z M-1071.5,335.7l-0.4-1.1c0.8-0.3,1.5-0.5,2.3-0.7l0.4,1.2C-1070,335.2-1070.7,335.5-1071.5,335.7z M-1015.5,334.5
			c-0.8-0.2-1.5-0.4-2.3-0.6l0.3-1.2c0.8,0.2,1.6,0.4,2.3,0.7L-1015.5,334.5z M-1065.7,334l-0.3-1.2c0.8-0.2,1.6-0.4,2.4-0.6
			l0.3,1.2C-1064.2,333.6-1064.9,333.8-1065.7,334z M-1021.4,333c-0.8-0.2-1.6-0.3-2.3-0.5l0.2-1.2c0.8,0.2,1.6,0.3,2.4,0.5
			L-1021.4,333z M-1059.9,332.6l-0.2-1.2c0.8-0.2,1.6-0.3,2.4-0.4l0.2,1.2C-1058.3,332.3-1059.1,332.5-1059.9,332.6z M-1027.3,331.9
			c-0.8-0.1-1.6-0.2-2.4-0.3l0.2-1.2c0.8,0.1,1.6,0.2,2.4,0.3L-1027.3,331.9z M-1053.9,331.6l-0.2-1.2c0.8-0.1,1.6-0.2,2.4-0.3
			l0.1,1.2C-1052.3,331.4-1053.1,331.5-1053.9,331.6z M-1033.2,331.2c-0.8-0.1-1.6-0.1-2.4-0.2l0.1-1.2c0.8,0.1,1.6,0.1,2.4,0.2
			L-1033.2,331.2z M-1047.9,331l-0.1-1.2c0.8-0.1,1.6-0.1,2.4-0.1v1.2C-1046.3,330.9-1047.1,331-1047.9,331z M-1039.2,330.9
			c-0.8,0-1.6,0-2.4,0h-0.3v-1.2h0.3c0.8,0,1.6,0,2.4,0V330.9z"/>
	</g>
	<g>
		<path class="st0" d="M-993.4,443.8c-7.9,18.9-26.5,32.2-48.3,32.2s-40.4-13.3-48.3-32.2h-34c9,37.1,42.4,64.8,82.3,64.8
			s73.3-27.6,82.3-64.8H-993.4z"/>
		<path class="st0" d="M-1089.9,403.7c7.9-18.9,26.5-32.2,48.3-32.2s40.4,13.3,48.3,32.2h34c-9-37.1-42.4-64.8-82.3-64.8
			s-73.3,27.6-82.3,64.8H-1089.9z"/>
	</g>
	<text transform="matrix(1 0 0 1 -1111.8621 433.3086)" class="st0" style="font-family:'LoveloLineLight'; font-size:27.5914px;">money back</text>
	<g>
		<polygon class="st0" points="-1041.6,380.6 -1039.7,386.7 -1033.3,386.7 -1038.5,390.4 -1036.5,396.4 -1041.6,392.7 
			-1046.8,396.4 -1044.8,390.4 -1049.9,386.7 -1043.6,386.7 		"/>
		<polygon class="st0" points="-1063.2,388.6 -1062.2,391.6 -1059.1,391.6 -1061.6,393.4 -1060.6,396.4 -1063.2,394.6 
			-1065.7,396.4 -1064.7,393.4 -1067.3,391.6 -1064.1,391.6 		"/>
		<polygon class="st0" points="-1020.1,388.6 -1019.1,391.6 -1016,391.6 -1018.5,393.4 -1017.6,396.4 -1020.1,394.6 -1022.6,396.4 
			-1021.7,393.4 -1024.2,391.6 -1021.1,391.6 		"/>
	</g>
	<text transform="matrix(1 0 0 1 -1065.7032 458.9131)" class="st0" style="font-family:'ArialMT'; font-size:12.9056px;">356 Days</text>
	<g>
		<path id="SVGID_x5F_11_x5F_" class="st3" d="M-978.7,413.9c-4.8-30.5-31.1-53.9-62.9-53.9s-58.1,23.4-62.9,53.9"/>
		<text transform="matrix(1 0 0 1 -1251.5 -363.9082)" style="font-family:'ArialMT'; font-size:12px;">   </text>
		<text transform="matrix(1 0 0 1 -978.6786 413.888)" style="font-family:'ArialMT'; font-size:12px;"> </text>
		
			<text transform="matrix(1 0 0 1 -979.1793 410.5815)" class="st2" style="font-family:'ArialMT'; font-size:11.2125px; letter-spacing:8;">R</text>
		
			<text transform="matrix(1 0 0 1 -985.4778 393.6631)" class="st2" style="font-family:'ArialMT'; font-size:11.2125px; letter-spacing:8;">I</text>
		
			<text transform="matrix(1 0 0 1 -992.7488 382.7527)" class="st2" style="font-family:'ArialMT'; font-size:11.2125px; letter-spacing:8;">S</text>
		
			<text transform="matrix(1 0 0 1 -1005.6643 371.0093)" class="st2" style="font-family:'ArialMT'; font-size:11.2125px; letter-spacing:8;">K</text>
		
			<text transform="matrix(1 0 0 1 -1021.2997 363.2898)" class="st2" style="font-family:'ArialMT'; font-size:11.2125px; letter-spacing:8;"> </text>
		
			<text transform="matrix(1 0 0 1 -1034.0699 360.3416)" class="st2" style="font-family:'ArialMT'; font-size:11.2125px; letter-spacing:8;">F</text>
		
			<text transform="matrix(1 0 0 1 -1050.9009 360.5378)" class="st2" style="font-family:'ArialMT'; font-size:11.2125px; letter-spacing:8;">R</text>
		
			<text transform="matrix(1 0 0 1 -1068.214 365.7069)" class="st2" style="font-family:'ArialMT'; font-size:11.2125px; letter-spacing:8;">E</text>
		
			<text transform="matrix(1 0 0 1 -1082.9069 375.1299)" class="st2" style="font-family:'ArialMT'; font-size:11.2125px; letter-spacing:8;">E</text>
		
			<text transform="matrix(1 0 0 1 -1094.4404 388.2126)" class="st2" style="font-family:'ArialMT'; font-size:11.2125px; letter-spacing:8;"> </text>
		
			<text transform="matrix(1 0 0 1 -1100.717 399.7299)" class="st2" style="font-family:'ArialMT'; font-size:11.2125px; letter-spacing:8;">G</text>
		<text transform="matrix(1 0 0 1 -1251.5 -363.9082)" style="font-family:'ArialMT'; font-size:12px;"> </text>
	</g>
	<g>
		<path id="SVGID_x5F_12_x5F_" class="st3" d="M-1104.5,433.5c4.8,30.5,31.1,53.9,62.9,53.9s58.1-23.4,62.9-53.9"/>
		<text transform="matrix(1 0 0 1 -1251.5 -363.9082)" style="font-family:'ArialMT'; font-size:12px;">   </text>
		<text transform="matrix(1 0 0 1 -1104.5215 433.4955)" style="font-family:'ArialMT'; font-size:12px;"> </text>
		
			<text transform="matrix(1 0 0 1 -1104.0208 436.8021)" class="st2" style="font-family:'ArialMT'; font-size:11.2125px; letter-spacing:8;">R</text>
		
			<text transform="matrix(1 0 0 1 -1097.7222 453.7205)" class="st2" style="font-family:'ArialMT'; font-size:11.2125px; letter-spacing:8;">I</text>
		
			<text transform="matrix(1 0 0 1 -1090.4512 464.6309)" class="st2" style="font-family:'ArialMT'; font-size:11.2125px; letter-spacing:8;">S</text>
		
			<text transform="matrix(1 0 0 1 -1077.5358 476.3743)" class="st2" style="font-family:'ArialMT'; font-size:11.2125px; letter-spacing:8;">K</text>
		
			<text transform="matrix(1 0 0 1 -1061.9004 484.0938)" class="st2" style="font-family:'ArialMT'; font-size:11.2125px; letter-spacing:8;"> </text>
		
			<text transform="matrix(1 0 0 1 -1049.13 487.042)" class="st2" style="font-family:'ArialMT'; font-size:11.2125px; letter-spacing:8;">F</text>
		
			<text transform="matrix(1 0 0 1 -1032.2991 486.8458)" class="st2" style="font-family:'ArialMT'; font-size:11.2125px; letter-spacing:8;">R</text>
		
			<text transform="matrix(1 0 0 1 -1014.986 481.6766)" class="st2" style="font-family:'ArialMT'; font-size:11.2125px; letter-spacing:8;">E</text>
		
			<text transform="matrix(1 0 0 1 -1000.2931 472.2536)" class="st2" style="font-family:'ArialMT'; font-size:11.2125px; letter-spacing:8;">E</text>
		
			<text transform="matrix(1 0 0 1 -988.7595 459.171)" class="st2" style="font-family:'ArialMT'; font-size:11.2125px; letter-spacing:8;"> </text>
		
			<text transform="matrix(1 0 0 1 -982.483 447.6536)" class="st2" style="font-family:'ArialMT'; font-size:11.2125px; letter-spacing:8;">G</text>
		<text transform="matrix(1 0 0 1 -1251.5 -363.9082)" style="font-family:'ArialMT'; font-size:12px;"> </text>
	</g>
</g>
<g>
	<polygon class="st2" points="-1041.6,619.4 -1019.6,636.2 -992.6,629.9 -979.2,654.1 -952,659.3 -949.7,686.9 -926.9,702.8 
		-936,728.9 -921.7,752.6 -940.7,772.8 -937.2,800.3 -962.7,811.1 -970.8,837.6 -998.5,837 -1016.6,858 -1041.6,846.2 -1066.7,858 
		-1084.8,837 -1112.5,837.6 -1120.5,811.1 -1146.1,800.3 -1142.6,772.8 -1161.6,752.6 -1147.2,728.9 -1156.3,702.8 -1133.6,686.9 
		-1131.3,659.3 -1104,654.1 -1090.7,629.9 -1063.7,636.2 	"/>
	<path class="st0" d="M-1041.6,647.6c50.3,0,91.1,40.8,91.1,91.1s-40.8,91.1-91.1,91.1c-50.3,0-91.1-40.8-91.1-91.1
		S-1091.9,647.6-1041.6,647.6"/>
	<path class="st2" d="M-1041.6,681.7c31.5,0,57,25.5,57,57s-25.5,57-57,57s-57-25.5-57-57C-1098.7,707.2-1073.1,681.7-1041.6,681.7"
		/>
	<g>
		<path class="st2" d="M-975.7,770l-2.5-1.2c4.5-9.4,6.8-19.6,6.8-30.1c0-10.6-2.3-20.7-6.8-30.2l2.5-1.2c4.7,9.9,7.1,20.4,7.1,31.4
			C-968.7,749.6-971.1,760.2-975.7,770z M-1107.5,770c-4.7-9.8-7-20.3-7-31.3s2.4-21.6,7.1-31.4l2.5,1.2c-4.5,9.5-6.8,19.6-6.8,30.2
			c0,10.5,2.3,20.6,6.8,30.1L-1107.5,770z"/>
	</g>
	<g>
		<polygon class="st0" points="-1041.6,693.1 -1039.6,699.4 -1033,699.4 -1038.3,703.3 -1036.3,709.6 -1041.6,705.7 -1047,709.6 
			-1044.9,703.3 -1050.3,699.4 -1043.7,699.4 		"/>
		<polygon class="st0" points="-1061.7,699.4 -1060.5,703.3 -1056.4,703.3 -1059.7,705.7 -1058.4,709.6 -1061.7,707.2 
			-1065.1,709.6 -1063.8,705.7 -1067.1,703.3 -1063,703.3 		"/>
		<polygon class="st0" points="-1021.5,699.4 -1020.3,703.3 -1016.2,703.3 -1019.5,705.7 -1018.2,709.6 -1021.5,707.2 
			-1024.8,709.6 -1023.6,705.7 -1026.9,703.3 -1022.8,703.3 		"/>
	</g>
	
		<text transform="matrix(1 0 0 1 -1086.9044 758.9061)" class="st0" style="font-family:'LoveloLineLight'; font-size:58.2543px; letter-spacing:-2;">100</text>
	<g>
		
			<text transform="matrix(1 0 0 1 -1006.8062 731.4296)" class="st0" style="font-family:'MyriadPro-Regular'; font-size:17.3961px;">%</text>
	</g>
	<g>
		<polygon class="st0" points="-1041.6,767.9 -1039.6,774.2 -1033,774.2 -1038.3,778.1 -1036.3,784.4 -1041.6,780.5 -1047,784.4 
			-1044.9,778.1 -1050.3,774.2 -1043.7,774.2 		"/>
		<polygon class="st0" points="-1061.7,767.9 -1060.5,771.8 -1056.4,771.8 -1059.7,774.2 -1058.4,778 -1061.7,775.6 -1065.1,778 
			-1063.8,774.2 -1067.1,771.8 -1063,771.8 		"/>
		<polygon class="st0" points="-1021.5,767.9 -1020.3,771.8 -1016.2,771.8 -1019.5,774.2 -1018.2,778 -1021.5,775.6 -1024.8,778 
			-1023.6,774.2 -1026.9,771.8 -1022.8,771.8 		"/>
	</g>
	<g>
		<path id="SVGID_x5F_13_x5F_" class="st3" d="M-974.6,728.2c-5-32.4-33-57.2-66.8-57.2s-61.8,24.8-66.8,57.2"/>
		<text transform="matrix(1 0 0 1 -1251.5 -363.9082)" style="font-family:'ArialMT'; font-size:12px;">   </text>
		<text transform="matrix(1 0 0 1 -974.5797 728.1884)" style="font-family:'ArialMT'; font-size:12px;"> </text>
		
			<text transform="matrix(1 0 0 1 -974.7844 724.7954)" class="st2" style="font-family:'ArialMT'; font-size:18.0577px; letter-spacing:73;">M</text>
		
			<text transform="matrix(1 0 0 1 -1039.0341 670.6736)" class="st2" style="font-family:'ArialMT'; font-size:18.0577px; letter-spacing:73;">O</text>
		
			<text transform="matrix(1 0 0 1 -1106.5211 719.2615)" class="st2" style="font-family:'ArialMT'; font-size:18.0577px; letter-spacing:73;">N</text>
		<text transform="matrix(1 0 0 1 -1251.5 -363.9082)" style="font-family:'ArialMT'; font-size:12px;"> </text>
	</g>
	<g>
		<path id="SVGID_x5F_14_x5F_" class="st3" d="M-1108.2,747.5c5,32.4,33,57.2,66.8,57.2s61.8-24.8,66.8-57.2"/>
		<text transform="matrix(1 0 0 1 -1251.5 -363.9082)" style="font-family:'ArialMT'; font-size:12px;">   </text>
		<text transform="matrix(1 0 0 1 -1108.2203 747.4952)" style="font-family:'ArialMT'; font-size:12px;"> </text>
		
			<text transform="matrix(1 0 0 1 -1107.9641 750.8717)" class="st2" style="font-family:'ArialMT'; font-size:18.0577px; letter-spacing:73;">G</text>
		
			<text transform="matrix(1 0 0 1 -1044.769 804.9182)" class="st2" style="font-family:'ArialMT'; font-size:18.0577px; letter-spacing:73;">U</text>
		
			<text transform="matrix(1 0 0 1 -976.9238 758.3312)" class="st2" style="font-family:'ArialMT'; font-size:18.0577px; letter-spacing:73;">A</text>
		<text transform="matrix(1 0 0 1 -1251.5 -363.9082)" style="font-family:'ArialMT'; font-size:12px;"> </text>
	</g>
</g>
<g>
	<polygon class="st2" points="-621.3,618.1 -604.5,632.8 -584,624 -572.6,643.2 -550.4,641.1 -545.4,662.9 -523.7,667.8 -525.7,690 
		-506.5,701.4 -515.4,721.9 -500.6,738.7 -515.4,755.5 -506.5,776 -525.7,787.4 -523.7,809.6 -545.4,814.5 -550.4,836.3 
		-572.6,834.2 -584,853.4 -604.5,844.6 -621.3,859.3 -638,844.6 -658.5,853.4 -669.9,834.2 -692.1,836.3 -697.1,814.5 -718.8,809.6 
		-716.8,787.4 -736,776 -727.1,755.5 -741.9,738.7 -727.1,721.9 -736,701.4 -716.8,690 -718.8,667.8 -697.1,662.9 -692.1,641.1 
		-669.9,643.2 -658.5,624 -638,632.8 	"/>
	<g>
		<path class="st0" d="M-699.6,762.1c10.1,33.8,41.3,58.5,78.4,58.5c37.1,0,68.3-24.7,78.4-58.5H-699.6z"/>
		<path class="st0" d="M-542.9,715.4c-10.1-33.8-41.3-58.5-78.4-58.5c-37.1,0-68.3,24.7-78.4,58.5H-542.9z"/>
	</g>
	<g>
		<path class="st0" d="M-706.4,715.4c10.3-37.4,44.5-65,85.2-65s74.9,27.6,85.2,65h2.9c-10.4-39-45.8-67.8-88-67.8
			s-77.7,28.8-88,67.8H-706.4z"/>
		<path class="st0" d="M-536.1,762.1c-10.3,37.4-44.5,65-85.2,65s-74.9-27.6-85.2-65h-2.9c10.4,39,45.8,67.8,88,67.8
			s77.7-28.9,88-67.8H-536.1z"/>
	</g>
	<text transform="matrix(1 0 0 1 -696.1008 749.3873)" class="st0" style="font-family:'LoveloLineLight'; font-size:29.4103px;">money back</text>
	<g>
		<polygon class="st2" points="-649.2,777.2 -648.4,779.7 -645.8,779.7 -647.9,781.3 -647.1,783.8 -649.2,782.2 -651.4,783.8 
			-650.5,781.3 -652.7,779.7 -650,779.7 		"/>
		<polygon class="st2" points="-593.3,777.2 -592.5,779.7 -589.8,779.7 -592,781.3 -591.1,783.8 -593.3,782.2 -595.4,783.8 
			-594.6,781.3 -596.7,779.7 -594.1,779.7 		"/>
	</g>
	<text transform="matrix(1 0 0 1 -650.2438 707.0953)" class="st2" style="font-family:'LoveloLineLight'; font-size:15.8208px;">Risk Free</text>
	<g>
		<polygon class="st2" points="-621.2,661.8 -619.7,666.6 -614.6,666.6 -618.7,669.6 -617.2,674.4 -621.2,671.4 -625.3,674.4 
			-623.8,669.6 -627.9,666.6 -622.8,666.6 		"/>
		<polygon class="st2" points="-653.4,670.4 -651.8,675.2 -646.8,675.2 -650.8,678.2 -649.3,683 -653.4,680 -657.4,683 
			-655.9,678.2 -660,675.2 -654.9,675.2 		"/>
		<polygon class="st2" points="-683.6,699.1 -678.5,698.8 -677.2,693.9 -675.4,698.7 -670.4,698.4 -674.3,701.6 -672.5,706.3 
			-676.7,703.5 -680.7,706.7 -679.3,701.8 		"/>
		<polygon class="st2" points="-589.1,670.4 -587.6,675.2 -582.5,675.2 -586.6,678.2 -585,683 -589.1,680 -593.2,683 -591.6,678.2 
			-595.7,675.2 -590.7,675.2 		"/>
		<polygon class="st2" points="-558.9,699.1 -563.2,701.8 -561.8,706.7 -565.8,703.5 -570,706.3 -568.2,701.6 -572.1,698.4 
			-567.1,698.7 -565.3,693.9 -564,698.8 		"/>
	</g>
	<g>
		<path id="SVGID_x5F_15_x5F_" class="st3" d="M-688.1,742.3c5,32.4,33,57.2,66.8,57.2s61.8-24.8,66.8-57.2"/>
		<text transform="matrix(1 0 0 1 -1251.5 -363.9082)" style="font-family:'ArialMT'; font-size:12px;">   </text>
		<text transform="matrix(1 0 0 1 -688.1204 742.2953)" style="font-family:'ArialMT'; font-size:12px;"> </text>
		
			<text transform="matrix(1 0 0 1 -687.864 745.6718)" class="st2" style="font-family:'ArialMT'; font-size:18.0577px; letter-spacing:73;">G</text>
		
			<text transform="matrix(1 0 0 1 -624.6692 799.7181)" class="st2" style="font-family:'ArialMT'; font-size:18.0577px; letter-spacing:73;">U</text>
		
			<text transform="matrix(1 0 0 1 -556.8239 753.1313)" class="st2" style="font-family:'ArialMT'; font-size:18.0577px; letter-spacing:73;">A</text>
		<text transform="matrix(1 0 0 1 -1251.5 -363.9082)" style="font-family:'ArialMT'; font-size:12px;"> </text>
	</g>
	<text transform="matrix(1 0 0 1 -639.615 788.3961)" class="st2" style="font-family:'LoveloLineLight'; font-size:22.6337px;">100</text>
	<text transform="matrix(1 0 0 1 -608.7068 777.2203)" class="st2" style="font-family:'ArialMT'; font-size:7.3078px;">%</text>
</g>
<rect x="-831.8" y="-48.7" class="st2" width="419.7" height="315"/>
<g>
	
		<ellipse transform="matrix(0.7071 -0.7071 0.7071 0.7071 -258.3072 -407.6022)" class="st0" cx="-621.2" cy="108" rx="117.6" ry="117.6"/>
	<g>
		<path class="st2" d="M-621.3,228.5c-66.4,0-120.4-54-120.4-120.4s54-120.4,120.4-120.4s120.4,54,120.4,120.4
			C-500.8,174.5-554.8,228.5-621.3,228.5z M-621.3-6.8c-63.3,0-114.8,51.5-114.8,114.8s51.5,114.8,114.8,114.8
			s114.8-51.5,114.8-114.8C-506.4,44.7-557.9-6.8-621.3-6.8z"/>
	</g>
	<path class="st2" d="M-621.2,17.6c49.9,0,90.4,40.5,90.4,90.4s-40.5,90.4-90.4,90.4s-90.4-40.5-90.4-90.4
		C-711.6,58.1-671.2,17.6-621.2,17.6"/>
	<g>
		<path class="st2" d="M-621.3,207.2c-54.7,0-99.2-44.5-99.2-99.2S-676,8.8-621.3,8.8s99.2,44.5,99.2,99.2S-566.6,207.2-621.3,207.2
			z M-621.3,11.7c-53.1,0-96.4,43.2-96.4,96.4c0,53.1,43.2,96.4,96.4,96.4s96.4-43.2,96.4-96.4C-524.9,54.9-568.1,11.7-621.3,11.7z"
			/>
	</g>
	<text transform="matrix(1 0 0 1 -672.9226 105.2618)" class="st0" style="font-family:'ArialMT'; font-size:37.9654px;">money</text>
	<text transform="matrix(1 0 0 1 -668.1023 137.4634)" class="st0" style="font-family:'ArialMT'; font-size:37.9654px;">bACK</text>
	<g>
		<path class="st0" d="M-687.4,121.2c1.9,0,3.4,1.5,3.4,3.4s-1.5,3.4-3.4,3.4s-3.4-1.5-3.4-3.4
			C-690.7,122.7-689.2,121.2-687.4,121.2"/>
		<path class="st0" d="M-555.1,121.2c1.9,0,3.4,1.5,3.4,3.4s-1.5,3.4-3.4,3.4s-3.4-1.5-3.4-3.4S-557,121.2-555.1,121.2"/>
	</g>
	<g>
		<rect x="-688.9" y="68.7" class="st0" width="135.4" height="2.8"/>
	</g>
	<g>
		<rect x="-688.9" y="144.5" class="st0" width="135.4" height="2.8"/>
	</g>
	<text transform="matrix(1 0 0 1 -658.6584 169.024)" class="st0" style="font-family:'ArialMT'; font-size:20.0591px;">356 Days</text>
	<text transform="matrix(1 0 0 1 -658.218 58.8868)" class="st0" style="font-family:'ArialMT'; font-size:31.1931px;">100%</text>
	<g>
		<polygon class="st2" points="-621.2,-5 -619.9,-0.9 -615.6,-0.9 -619.1,1.6 -617.8,5.7 -621.2,3.2 -624.7,5.7 -623.3,1.6 
			-626.8,-0.9 -622.5,-0.9 		"/>
		<polygon class="st2" points="-592,-1.1 -591.8,3.2 -587.6,4.3 -591.6,5.8 -591.4,10.1 -594.1,6.7 -598.1,8.3 -595.7,4.7 
			-598.4,1.4 -594.3,2.5 		"/>
		<polygon class="st2" points="-564.7,10.2 -565.6,14.4 -561.9,16.5 -566.2,16.9 -567,21.1 -568.8,17.2 -573,17.7 -569.8,14.8 
			-571.6,10.9 -567.9,13.1 		"/>
		<polygon class="st2" points="-541.3,28.1 -543.3,32 -540.2,35 -544.5,34.3 -546.4,38.1 -547.1,33.9 -551.3,33.2 -547.5,31.3 
			-548.1,27.1 -545.1,30.1 		"/>
		<polygon class="st2" points="-523.3,51.5 -526.2,54.7 -524.1,58.4 -528,56.7 -530.8,59.9 -530.4,55.6 -534.3,53.9 -530.1,53 
			-529.7,48.7 -527.5,52.4 		"/>
		<polygon class="st2" points="-512.1,78.8 -515.7,81.1 -514.5,85.3 -517.9,82.6 -521.4,84.9 -519.9,80.9 -523.2,78.2 -519,78.4 
			-517.4,74.4 -516.3,78.6 		"/>
		<polygon class="st2" points="-508.2,108 -512.3,109.4 -512.3,113.6 -514.8,110.2 -518.9,111.5 -516.3,108 -518.9,104.6 
			-514.8,105.9 -512.3,102.5 -512.3,106.7 		"/>
		<polygon class="st2" points="-512.1,137.3 -516.3,137.5 -517.4,141.7 -519,137.7 -523.2,137.9 -519.9,135.2 -521.4,131.2 
			-517.9,133.5 -514.5,130.8 -515.7,135 		"/>
		<polygon class="st2" points="-523.3,164.6 -527.5,163.7 -529.7,167.4 -530.1,163.1 -534.3,162.2 -530.4,160.5 -530.8,156.2 
			-528,159.4 -524.1,157.7 -526.2,161.4 		"/>
		<polygon class="st2" points="-541.3,188 -545.1,186.1 -548.1,189.1 -547.4,184.9 -551.3,182.9 -547,182.3 -546.4,178 
			-544.4,181.9 -540.2,181.2 -543.2,184.2 		"/>
		<polygon class="st2" points="-564.7,206 -567.9,203.1 -571.6,205.3 -569.8,201.4 -573,198.5 -568.8,198.9 -567,195 -566.1,199.2 
			-561.9,199.7 -565.6,201.8 		"/>
		<polygon class="st2" points="-592,217.3 -594.3,213.7 -598.4,214.8 -595.7,211.5 -598.1,207.9 -594.1,209.4 -591.4,206.1 
			-591.6,210.4 -587.6,211.9 -591.7,213 		"/>
		<polygon class="st2" points="-621.2,221.1 -622.5,217.1 -626.8,217.1 -623.3,214.6 -624.7,210.5 -621.2,213 -617.8,210.5 
			-619.1,214.6 -615.6,217.1 -619.9,217.1 		"/>
		<polygon class="st2" points="-650.5,217.3 -650.7,213 -654.8,211.9 -650.8,210.4 -651.1,206.1 -648.4,209.4 -644.4,207.9 
			-646.7,211.5 -644,214.8 -648.2,213.7 		"/>
		<polygon class="st2" points="-677.7,206 -676.8,201.8 -680.6,199.7 -676.3,199.2 -675.4,195 -673.7,198.9 -669.4,198.5 
			-672.6,201.4 -670.9,205.3 -674.6,203.1 		"/>
		<polygon class="st2" points="-701.1,188 -699.2,184.2 -702.2,181.2 -698,181.9 -696.1,178 -695.4,182.3 -691.2,182.9 -695,184.9 
			-694.3,189.1 -697.3,186.1 		"/>
		<polygon class="st2" points="-719.1,164.7 -716.3,161.5 -718.4,157.8 -714.5,159.5 -711.7,156.3 -712.1,160.6 -708.2,162.3 
			-712.4,163.2 -712.8,167.5 -715,163.8 		"/>
		<polygon class="st2" points="-730.4,137.4 -726.8,135.1 -728,130.9 -724.6,133.6 -721.1,131.3 -722.6,135.3 -719.3,138 
			-723.5,137.7 -725.1,141.7 -726.2,137.6 		"/>
		<polygon class="st2" points="-734.3,108.1 -730.2,106.8 -730.2,102.5 -727.7,106 -723.6,104.7 -726.2,108.1 -723.6,111.6 
			-727.7,110.2 -730.2,113.7 -730.2,109.4 		"/>
		<polygon class="st2" points="-730.4,78.9 -726.2,78.6 -725.1,74.5 -723.5,78.5 -719.3,78.3 -722.6,81 -721.1,84.9 -724.6,82.6 
			-728,85.3 -726.8,81.2 		"/>
		<polygon class="st2" points="-719.1,51.6 -715,52.5 -712.8,48.8 -712.4,53 -708.2,53.9 -712.1,55.6 -711.7,59.9 -714.5,56.7 
			-718.4,58.5 -716.3,54.8 		"/>
		<polygon class="st2" points="-701.2,28.2 -697.4,30.1 -694.3,27.1 -695,31.3 -691.2,33.2 -695.4,33.9 -696.1,38.1 -698,34.3 
			-702.3,35 -699.2,32 		"/>
		<polygon class="st2" points="-677.8,10.2 -674.6,13.1 -670.9,10.9 -672.6,14.8 -669.4,17.7 -673.7,17.2 -675.4,21.1 -676.3,16.9 
			-680.6,16.5 -676.9,14.4 		"/>
		<polygon class="st2" points="-650.5,-1.1 -648.2,2.5 -644,1.4 -646.7,4.7 -644.4,8.3 -648.4,6.7 -651.1,10.1 -650.8,5.8 
			-654.8,4.3 -650.7,3.2 		"/>
	</g>
</g>
<g>
	<path class="st2" d="M-621.3,304.3c9.2,0,13,14.8,22.1,16.8c9,1.9,18.5-10.1,27-6.3c8.4,3.8,5.9,18.9,13.4,24.3s21-1.7,27.2,5.2
		s-2.3,19.6,2.3,27.6s19.9,7,22.8,15.8c2.9,8.8-10.1,17-9.1,26.2c1,9.2,15.3,14.5,14.3,23.7s-16.1,11.4-19,20.2s8.1,19.5,3.5,27.5
		s-19.4,3.9-25.5,10.7c-6.2,6.9-0.5,21.1-8,26.5s-19.3-4.3-27.7-0.6c-8.4,3.8-9.1,19.1-18.1,21s-15.8-11.8-25.1-11.8
		c-9.2,0-16,13.7-25.1,11.8c-9-1.9-9.7-17.2-18.1-21c-8.4-3.8-20.2,6-27.7,0.6s-1.8-19.7-8-26.5c-6.2-6.9-20.9-2.7-25.5-10.7
		s6.3-18.7,3.5-27.5c-2.9-8.8-18-11-19-20.2s13.4-14.5,14.3-23.7c1-9.2-12-17.4-9.1-26.2s18.1-7.8,22.8-15.8
		c4.6-8-3.9-20.8,2.3-27.6c6.2-6.9,19.7,0.2,27.2-5.2s4.9-20.5,13.4-24.3c8.4-3.8,17.9,8.2,27,6.3
		C-634.3,319.2-630.5,304.3-621.3,304.3"/>
	
		<text transform="matrix(0.8988 -0.4384 0.4384 0.8988 -622.7035 350.3977)" class="st0" style="font-family:'ArialMT'; font-size:14.0158px;"> </text>
	
		<text transform="matrix(0.7986 0.6018 -0.6018 0.7986 -625.4357 356.8838)" class="st0" style="font-family:'ArialMT'; font-size:14.014px;"> </text>
	<g>
		<path class="st0" d="M-564.3,382h-113.9c-0.6,0.9-1.2,1.7-1.8,2.6h117.5C-563.1,383.8-563.7,382.9-564.3,382z"/>
		<path class="st0" d="M-560.5,387.8H-682c-0.5,0.9-1,1.7-1.5,2.6h124.4C-559.5,389.5-560,388.7-560.5,387.8z"/>
		<path class="st0" d="M-569.1,376.3h-104.3c-0.8,0.9-1.5,1.7-2.3,2.6h108.9C-567.5,378-568.3,377.1-569.1,376.3z"/>
		<path class="st0" d="M-557.5,393.6H-685c-0.4,0.9-0.8,1.7-1.2,2.6h129.9C-556.7,395.3-557.1,394.4-557.5,393.6z"/>
		<path class="st0" d="M-621.2,353.2c-6.7,0-13.1,0.9-19.2,2.7h38.5C-608.1,354.1-614.6,353.2-621.2,353.2z"/>
		<path class="st0" d="M-593.2,359h-56.1c-1.8,0.8-3.6,1.7-5.4,2.6h66.9C-589.6,360.6-591.4,359.8-593.2,359z"/>
		<path class="st0" d="M-575,370.5h-92.5c-1,0.8-1.9,1.7-2.8,2.6h98.3C-573,372.2-574,371.4-575,370.5z"/>
		<path class="st0" d="M-582.5,364.7h-77.4c-1.3,0.8-2.5,1.7-3.7,2.6h84.8C-580,366.4-581.3,365.6-582.5,364.7z"/>
		<path class="st0" d="M-649.3,488.5h56.1c1.8-0.8,3.6-1.7,5.4-2.6h-66.9C-652.9,486.8-651.1,487.7-649.3,488.5z"/>
		<path class="st0" d="M-678.2,465.4h113.8c0.6-0.9,1.2-1.7,1.8-2.6H-680C-679.4,463.7-678.8,464.5-678.2,465.4z"/>
		<path class="st0" d="M-682,459.6h121.5c0.5-0.9,1-1.7,1.5-2.6h-124.5C-683,457.9-682.5,458.8-682,459.6z"/>
		<path class="st0" d="M-685,453.9h127.5c0.4-0.9,0.8-1.7,1.2-2.6h-129.9C-685.8,452.1-685.5,453-685,453.9z"/>
		<path class="st0" d="M-673.4,471.2H-569c0.8-0.9,1.5-1.7,2.3-2.6h-109C-675,469.4-674.2,470.3-673.4,471.2z"/>
		<path class="st0" d="M-660,482.7h77.5c1.3-0.8,2.5-1.7,3.7-2.6h-84.8C-662.5,481-661.2,481.9-660,482.7z"/>
		<path class="st0" d="M-667.6,476.9h92.6c1-0.8,1.9-1.7,2.8-2.6h-98.3C-669.5,475.2-668.5,476.1-667.6,476.9z"/>
		<path class="st0" d="M-621.2,494.3c6.7,0,13.1-0.9,19.2-2.7h-38.5C-634.4,493.3-627.9,494.3-621.2,494.3z"/>
	</g>
	<g>
		<path class="st0" d="M-691.6,397.4c10.7-28.5,38.1-48.8,70.3-48.8s59.6,20.4,70.3,48.8h3c-10.8-30-39.6-51.6-73.3-51.6
			s-62.5,21.6-73.3,51.6H-691.6z"/>
		<path class="st0" d="M-550.9,450c-10.7,28.5-38.1,48.8-70.3,48.8s-59.6-20.4-70.3-48.8h-3c10.8,30,39.6,51.6,73.3,51.6
			s62.5-21.6,73.3-51.6H-550.9z"/>
	</g>
	<text transform="matrix(1 0 0 1 -716.2795 436.9883)" class="st0" style="font-family:'LoveloLineLight'; font-size:36.5919px;">GUARANTEE</text>
	<g>
		<path id="SVGID_x5F_16_x5F_" class="st3" d="M-538.5,410.8c-6.3-40.1-40.9-70.9-82.7-70.9c-41.9,0-76.5,30.7-82.7,70.9"/>
		<text transform="matrix(1 0 0 1 -1251.5 -363.9082)" style="font-family:'ArialMT'; font-size:12px;">   </text>
		<text transform="matrix(1 0 0 1 -538.4837 410.7891)" style="font-family:'ArialMT'; font-size:12px;"> </text>
		
			<text transform="matrix(1 0 0 1 -538.8641 407.4549)" class="st0" style="font-family:'ArialMT'; font-size:14.7452px; letter-spacing:8;">M</text>
		
			<text transform="matrix(1 0 0 1 -546.0823 386.3863)" class="st0" style="font-family:'ArialMT'; font-size:14.7452px; letter-spacing:8;">O</text>
		
			<text transform="matrix(1 0 0 1 -558.0284 368.5609)" class="st0" style="font-family:'ArialMT'; font-size:14.7452px; letter-spacing:8;">N</text>
		
			<text transform="matrix(1 0 0 1 -573.389 354.7812)" class="st0" style="font-family:'ArialMT'; font-size:14.7452px; letter-spacing:8;">E</text>
		
			<text transform="matrix(1 0 0 1 -590.8674 345.4298)" class="st0" style="font-family:'ArialMT'; font-size:14.7452px; letter-spacing:8;">Y</text>
		
			<text transform="matrix(1 0 0 1 -610.0732 340.6033)" class="st0" style="font-family:'ArialMT'; font-size:14.7452px; letter-spacing:8;"> </text>
		
			<text transform="matrix(1 0 0 1 -624.1501 339.7996)" class="st0" style="font-family:'ArialMT'; font-size:14.7452px; letter-spacing:8;">B</text>
		
			<text transform="matrix(1 0 0 1 -643.7434 342.8062)" class="st0" style="font-family:'ArialMT'; font-size:14.7452px; letter-spacing:8;">A</text>
		
			<text transform="matrix(1 0 0 1 -662.0847 350.3363)" class="st0" style="font-family:'ArialMT'; font-size:14.7452px; letter-spacing:8;">C</text>
		
			<text transform="matrix(1 0 0 1 -678.7012 362.5722)" class="st0" style="font-family:'ArialMT'; font-size:14.7452px; letter-spacing:8;">K</text>
		
			<text transform="matrix(1 0 0 1 -691.3135 377.8438)" class="st0" style="font-family:'ArialMT'; font-size:14.7452px; letter-spacing:8;"> </text>
		
			<text transform="matrix(1 0 0 1 -698.1267 390.1929)" class="st0" style="font-family:'ArialMT'; font-size:14.7452px; letter-spacing:8;">R</text>
		<text transform="matrix(1 0 0 1 -1251.5 -363.9082)" style="font-family:'ArialMT'; font-size:12px;"> </text>
	</g>
	<g>
		<path id="SVGID_x5F_17_x5F_" class="st3" d="M-704,436.6c6.3,40.1,40.9,70.9,82.7,70.9c41.9,0,76.5-30.7,82.7-70.9"/>
		<text transform="matrix(1 0 0 1 -1251.5 -363.9082)" style="font-family:'ArialMT'; font-size:12px;">   </text>
		<text transform="matrix(1 0 0 1 -704.0164 436.5945)" style="font-family:'ArialMT'; font-size:12px;"> </text>
		
			<text transform="matrix(1 0 0 1 -703.636 439.9287)" class="st0" style="font-family:'ArialMT'; font-size:14.7452px; letter-spacing:8;">M</text>
		
			<text transform="matrix(1 0 0 1 -696.4177 460.9973)" class="st0" style="font-family:'ArialMT'; font-size:14.7452px; letter-spacing:8;">O</text>
		
			<text transform="matrix(1 0 0 1 -684.4717 478.8226)" class="st0" style="font-family:'ArialMT'; font-size:14.7452px; letter-spacing:8;">N</text>
		
			<text transform="matrix(1 0 0 1 -669.1111 492.6024)" class="st0" style="font-family:'ArialMT'; font-size:14.7452px; letter-spacing:8;">E</text>
		
			<text transform="matrix(1 0 0 1 -651.6327 501.9537)" class="st0" style="font-family:'ArialMT'; font-size:14.7452px; letter-spacing:8;">Y</text>
		
			<text transform="matrix(1 0 0 1 -632.4268 506.7803)" class="st0" style="font-family:'ArialMT'; font-size:14.7452px; letter-spacing:8;"> </text>
		
			<text transform="matrix(1 0 0 1 -618.35 507.584)" class="st0" style="font-family:'ArialMT'; font-size:14.7452px; letter-spacing:8;">B</text>
		
			<text transform="matrix(1 0 0 1 -598.7567 504.5774)" class="st0" style="font-family:'ArialMT'; font-size:14.7452px; letter-spacing:8;">A</text>
		
			<text transform="matrix(1 0 0 1 -580.4153 497.0473)" class="st0" style="font-family:'ArialMT'; font-size:14.7452px; letter-spacing:8;">C</text>
		
			<text transform="matrix(1 0 0 1 -563.799 484.8114)" class="st0" style="font-family:'ArialMT'; font-size:14.7452px; letter-spacing:8;">K</text>
		
			<text transform="matrix(1 0 0 1 -551.1866 469.5399)" class="st0" style="font-family:'ArialMT'; font-size:14.7452px; letter-spacing:8;"> </text>
		
			<text transform="matrix(1 0 0 1 -544.3732 457.1908)" class="st0" style="font-family:'ArialMT'; font-size:14.7452px; letter-spacing:8;">R</text>
		<text transform="matrix(1 0 0 1 -1251.5 -363.9082)" style="font-family:'ArialMT'; font-size:12px;"> </text>
	</g>
</g>
<rect x="486.9" y="-597.9" class="st4" width="97" height="56"/>
<path class="st5" d="M522.3-580.8c-0.2,0.1-0.5,0.2-0.7,0.3s-0.3,0.3-0.5,0.5c-0.1,0.2-0.2,0.5-0.2,0.9v20.7c0,0.9-0.1,1.8-0.3,2.6
	c-0.2,0.8-0.5,1.5-0.9,2.1c-0.4,0.6-0.9,1.1-1.6,1.4s-1.4,0.5-2.3,0.5h-4.3c0.4-0.2,0.7-0.5,1-0.8c0.2-0.3,0.5-0.7,0.7-1.1
	c0.2-0.4,0.3-1,0.3-1.7v-25.4H522.3z M499.9-575.3c0,0.3,0,0.8,0,1.3v1.7v1.8v3.5c0,1.1,0,1.7,0,1.9c0,0.7,0.2,1.3,0.5,1.9
	s0.7,1.1,1.1,1.5c0.5,0.4,1,0.8,1.6,1s1.2,0.3,1.9,0.3h4.4c-0.4-0.2-0.7-0.5-1-0.8c-0.2-0.3-0.5-0.7-0.7-1.1
	c-0.2-0.5-0.3-1.1-0.3-1.8v-13.1c0-0.7,0.1-1.3,0.3-1.7c0.2-0.5,0.4-0.8,0.7-1.1c0.3-0.3,0.6-0.6,1-0.8H505c-0.7,0-1.3,0.1-1.9,0.3
	c-0.6,0.2-1.1,0.6-1.6,1c-0.5,0.4-0.9,0.9-1.1,1.5c-0.3,0.6-0.4,1.2-0.5,1.9C499.9-575.9,499.9-575.7,499.9-575.3z"/>
<path class="st5" d="M530.2-571.2v10.9h8.8c-0.2-0.1-0.5-0.2-0.7-0.3s-0.3-0.3-0.5-0.5c-0.1-0.2-0.2-0.5-0.2-0.9v-12.1v-0.7
	c0-0.4,0-0.8,0-1.2c-0.1-0.7-0.2-1.3-0.5-1.9s-0.7-1.1-1.1-1.5c-0.5-0.4-1-0.8-1.6-1s-1.2-0.3-1.9-0.3h-4.4c0.4,0.2,0.7,0.5,1,0.8
	c0.2,0.3,0.5,0.7,0.7,1.1c0.2,0.5,0.3,1,0.3,1.7v5.9H530.2z M543.7-571.2v10.9h8.8c-0.2-0.1-0.5-0.2-0.7-0.3s-0.3-0.3-0.5-0.5
	c-0.1-0.2-0.2-0.5-0.2-0.9v-12.1c0-0.9-0.1-1.8-0.3-2.6s-0.5-1.5-0.9-2.1c-0.4-0.6-0.9-1.1-1.6-1.4c-0.6-0.4-1.4-0.5-2.4-0.5h-4.3
	c0.4,0.2,0.7,0.5,1,0.8c0.2,0.3,0.5,0.7,0.7,1.1c0.2,0.5,0.3,1,0.3,1.7v5.9H543.7z M557.3-571.2v10.9h8.8c-0.2-0.1-0.5-0.2-0.7-0.3
	s-0.3-0.3-0.5-0.5c-0.1-0.2-0.2-0.5-0.2-0.9v-12.1v-0.7c0-0.4,0-0.8,0-1.2c0-0.7-0.2-1.3-0.5-1.9s-0.7-1.1-1.1-1.5
	c-0.5-0.4-1-0.8-1.6-1s-1.2-0.3-1.9-0.3h-4.3c0.4,0.2,0.7,0.5,1,0.8c0.2,0.3,0.5,0.7,0.7,1.1c0.2,0.5,0.3,1,0.3,1.7L557.3-571.2
	L557.3-571.2z"/>
<path class="st6" d="M517.7-46.1H62.9V-196h454.8V-46.1z M67.7-50.9h445.2v-140.3H67.7V-50.9z"/>
<g>
	<path class="st6" d="M116,156H94.5c-2.1,0-4-1.5-4.5-3.6c-0.5-2.1,0.5-4.2,2.4-5.2c1.2-0.6,2.3-1.6,3.5-2.8l0.5-0.8
		c0.8-1.2,1.8-2.6,2.4-3.8c0.6-1.3,1-3.6,1-6.4V7c0-2.6,2.1-4.6,4.6-4.6h43.8c2.1,0,4,1.5,4.5,3.6c0.5,2.1-0.5,4.2-2.4,5.2
		c-0.6,0.3-1.3,0.6-2.1,0.9c-0.5,0.2-1,0.4-1.4,0.6c0.2-0.1,0.1,0.1-0.1,0.3c-0.2,0.2-0.4,0.4-0.5,0.7c-0.2,0.5-0.3,1.1-0.3,1.9
		v103.1c0,4.9-0.5,9.8-1.6,14.1c-1.1,4.5-2.9,8.5-5.1,11.9c-2.7,4.1-6,7-10,8.6C126.2,154.4,121.8,156,116,156z M105.5,146.8H116
		c3.4,0,6.1-0.6,9.6-2.1c2.3-1,4.2-2.7,6-5.3c1.7-2.6,3-5.6,3.9-9c0.9-3.6,1.3-7.6,1.3-11.8V15.4c0-1.3,0.2-2.6,0.5-3.9h-28.1v121.9
		c0,4.4-0.7,7.9-2,10.5C106.7,144.9,106.1,145.9,105.5,146.8z M84.1,113.1H62.2c-3.9,0-7.4-0.5-10.9-1.7c-3.8-1.3-6.7-3.6-9.4-5.7
		c-0.1-0.1-0.3-0.2-0.4-0.3c-2.7-2.6-4.8-5.6-6.3-8.7c-1.3-2.6-3-6.5-3-11.5V30.3c0-0.2,0-0.4,0-0.6c0.5-3.7,1.1-7.1,2.8-10.6
		c1.3-3.5,3.6-6.6,6.9-9.3c2.6-2.1,5.6-4.5,9.4-5.7c3.5-1.2,7-1.7,10.9-1.7h21.9c2.1,0,4,1.5,4.5,3.6c0.5,2.1-0.5,4.2-2.4,5.2
		c-1.3,0.7-2.5,1.8-3.8,3.1c-1,1-1.6,1.9-2.5,3.9c-0.8,1.6-1.2,4-1.2,6.7v65.2c0,2.9,0.4,5.3,1.2,7.3c0.5,0.9,1.4,2.2,2.2,3.4
		l0.5,0.8c1.2,1.2,2.3,2.2,3.5,2.8c1.9,1,2.9,3.1,2.4,5.2C88.1,111.7,86.2,113.1,84.1,113.1z M47.8,98.6c2.1,1.7,4.2,3.3,6.3,4
		c2.6,0.9,5.1,1.3,8,1.3h10.9c-0.6-0.9-1.1-1.8-1.6-2.8c-1.4-3.4-2-7-2-11V24.9c0-4.4,0.7-7.9,2-10.5c0.4-1,0.8-1.9,1.3-2.8H62.2
		c-2.9,0-5.4,0.4-8,1.3c-2.2,0.7-4.3,2.4-6.5,4.2c-2,1.6-3.4,3.4-4,5.3c-0.1,0.2-0.2,0.4-0.3,0.6c-1.1,2.3-1.6,4.7-2,7.7v54.5
		c0,2.4,0.6,4.6,2,7.4C44.5,94.7,46,96.7,47.8,98.6z"/>
	<path class="st6" d="M368.5,104.9c-0.6-0.3-1.3-0.6-2.1-0.9c-0.5-0.2-1-0.5-1-0.4c-0.2-0.1-0.3-0.3-0.4-0.5
		c-0.2-0.2-0.4-0.4-0.5-0.7c-0.2-0.5-0.3-1.1-0.3-1.9V30.8c0-5-1.7-9-3-11.5c-1.6-3.1-3.7-6-6.3-8.7c-0.1-0.1-0.3-0.3-0.4-0.3
		c-2.6-2.1-5.6-4.5-9.4-5.7c-3.6-1.2-7-1.7-10.9-1.7h-21.4c-2.1,0-4,1.5-4.5,3.6c-0.5,2.1,0.5,4.2,2.4,5.2c1.2,0.6,2.3,1.6,3.5,2.8
		l0.5,0.8c0.8,1.2,1.8,2.6,2.2,3.4c0.8,2.1,1.2,4,1.2,6.7v83.7c0,2.6,2.1,4.6,4.6,4.6h43.8c2.1,0,4-1.5,4.5-3.6
		C371.5,108,370.5,105.8,368.5,104.9z M327.3,104.4V25.4c0-3.9-0.5-7-2-10.5c-0.5-1-1-1.9-1.6-2.8h10.4c2.9,0,5.4,0.4,8,1.3
		c2.1,0.7,4.2,2.3,6.3,4c1.9,1.9,3.4,3.9,4.4,6.1c1.4,2.8,2,5,2,7.4v69.7c0,1.3,0.2,2.6,0.5,3.9L327.3,104.4L327.3,104.4z"/>
	<path class="st6" d="M233.6,104.9c-0.6-0.3-1.3-0.6-2.1-0.9c-0.5-0.2-1-0.5-1-0.4c-0.2-0.1-0.3-0.3-0.4-0.5
		c-0.2-0.2-0.4-0.4-0.5-0.7c-0.2-0.5-0.3-1.1-0.3-1.9V30.8c0-0.2,0-0.4,0-0.7c-0.5-3.9-1.1-7.3-2.9-10.9c-1.6-3.1-3.7-6-6.3-8.7
		c-0.1-0.1-0.3-0.2-0.4-0.3c-2.6-2.1-5.6-4.5-9.4-5.7c-3.6-1.2-7-1.7-10.9-1.7h-21.9c-2.1,0-4,1.5-4.5,3.6s0.5,4.2,2.4,5.2
		c1.2,0.6,2.3,1.7,3.5,2.8l0.5,0.8c0.8,1.2,1.8,2.6,2.2,3.4c0.8,2.1,1.2,4,1.2,6.7c0,0,0.5,29.2,0.5,31.5v52.2
		c0,2.6,2.1,4.6,4.6,4.6h43.8c2.1,0,4-1.5,4.5-3.6C236.5,108,235.5,105.8,233.6,104.9z M192.3,104.4V54.7c0-0.8-0.5-29.4-0.5-29.4
		c0-3.9-0.5-7-2-10.5c-0.5-1-1-1.9-1.6-2.8h10.9c2.9,0,5.4,0.4,8,1.3c2.1,0.7,4.2,2.3,6.3,4c1.9,1.9,3.4,3.9,4.4,6.1
		c1.1,2.3,1.6,4.7,2,7.7v69.4c0,1.3,0.2,2.6,0.5,3.9L192.3,104.4L192.3,104.4z"/>
	<path class="st6" d="M300.8,104.9c-0.6-0.3-1.3-0.6-2.1-0.9c-0.5-0.2-1-0.5-1-0.4c-0.2-0.1-0.3-0.3-0.4-0.5
		c-0.2-0.2-0.4-0.4-0.5-0.7c-0.2-0.5-0.3-1.1-0.3-1.9V30.8c0-0.2,0-0.4,0-0.7c-0.5-3.9-1.1-7.3-2.9-10.9c-1.6-3.1-3.7-6-6.3-8.7
		c-0.1-0.1-0.3-0.2-0.4-0.3c-2.6-2.1-5.6-4.5-9.4-5.7c-3.6-1.2-7-1.7-10.9-1.7h-21.9c-2.1,0-4,1.5-4.5,3.6s0.5,4.2,2.4,5.2
		c1.2,0.6,2.3,1.7,3.5,2.8l0.5,0.8c0.8,1.2,1.8,2.6,2.2,3.4c0.8,2.1,1.2,4,1.2,6.7c0,0,0.5,29.2,0.5,31.5v52.2
		c0,2.6,2.1,4.6,4.6,4.6h43.8c2.1,0,4-1.5,4.5-3.6C303.7,108,302.7,105.8,300.8,104.9z M259.6,104.4V54.7c0-0.8-0.5-29.4-0.5-29.4
		c0-3.9-0.5-7-2-10.5c-0.5-1-1-1.9-1.6-2.8h10.9c2.9,0,5.4,0.4,8,1.3c2.1,0.7,4.2,2.3,6.3,4c1.9,1.9,3.4,3.9,4.4,6.1
		c1.1,2.3,1.6,4.7,2,7.7v69.4c0,1.3,0.2,2.6,0.5,3.9L259.6,104.4L259.6,104.4z"/>
</g>
<path class="st6" d="M1071.9,434.9H734.3V297.2h337.7V434.9z M738.7,430.5h328.8V301.6H738.7V430.5z"/>
<g>
	<path class="st6" d="M862.2,411.3h-10.2c-1,0-1.9-0.7-2.1-1.7c-0.2-1,0.2-2,1.2-2.5c0.6-0.3,1.1-0.8,1.7-1.3l0.3-0.4
		c0.4-0.6,0.8-1.2,1.1-1.8s0.5-1.7,0.5-3.1v-60.4c0-1.2,1-2.2,2.2-2.2h20.9c1,0,1.9,0.7,2.1,1.7s-0.2,2-1.2,2.5
		c-0.3,0.1-0.6,0.3-1,0.4c-0.2,0.1-0.5,0.2-0.7,0.3c0.1,0,0,0,0,0.1c-0.1,0.1-0.2,0.2-0.3,0.3c-0.1,0.2-0.1,0.5-0.1,0.9v49.3
		c0,2.4-0.3,4.7-0.8,6.7c-0.5,2.1-1.4,4-2.4,5.7c-1.3,2-2.9,3.3-4.8,4.1C867,410.6,865,411.3,862.2,411.3z M857.2,406.9h5
		c1.6,0,2.9-0.3,4.6-1c1.1-0.5,2-1.3,2.8-2.5c0.8-1.2,1.4-2.7,1.8-4.3c0.4-1.7,0.6-3.6,0.6-5.7v-49.3c0-0.6,0.1-1.3,0.2-1.8h-13.4
		v58.3c0,2.1-0.3,3.8-0.9,5C857.7,406,857.4,406.5,857.2,406.9z M846.9,390.9h-10.5c-1.9,0-3.5-0.3-5.2-0.8
		c-1.8-0.6-3.2-1.7-4.5-2.7c-0.1,0-0.1-0.1-0.2-0.2c-1.3-1.3-2.3-2.7-3-4.1c-0.6-1.2-1.4-3.1-1.4-5.5v-26.2c0-0.1,0-0.2,0-0.3
		c0.3-1.8,0.5-3.4,1.3-5.1c0.6-1.7,1.7-3.2,3.3-4.4c1.3-1,2.7-2.1,4.5-2.7c1.7-0.6,3.3-0.8,5.2-0.8h10.5c1,0,1.9,0.7,2.1,1.7
		c0.2,1-0.2,2-1.2,2.5c-0.6,0.3-1.2,0.9-1.8,1.5c-0.5,0.5-0.8,0.9-1.2,1.9c-0.4,0.8-0.6,1.9-0.6,3.2v31.2c0,1.4,0.2,2.5,0.6,3.5
		c0.2,0.4,0.7,1.1,1.1,1.6l0.3,0.4c0.6,0.6,1.1,1.1,1.7,1.3c0.9,0.5,1.4,1.5,1.2,2.5C848.8,390.1,847.9,390.9,846.9,390.9z
		 M829.6,383.9c1,0.8,2,1.6,3,1.9c1.3,0.4,2.4,0.6,3.8,0.6h5.2c-0.3-0.4-0.5-0.9-0.8-1.3c-0.7-1.6-0.9-3.3-0.9-5.3v-31.2
		c0-2.1,0.3-3.8,0.9-5c0.2-0.5,0.4-0.9,0.6-1.3h-5.1c-1.4,0-2.6,0.2-3.8,0.6c-1.1,0.3-2.1,1.2-3.1,2c-1,0.8-1.6,1.6-1.9,2.5
		c0,0.1-0.1,0.2-0.1,0.3c-0.5,1.1-0.7,2.2-1,3.7v26c0,1.1,0.3,2.2,1,3.5C828,382,828.7,383,829.6,383.9z"/>
	<path class="st6" d="M982.9,386.9c-0.3-0.1-0.6-0.3-1-0.4c-0.2-0.1-0.5-0.2-0.5-0.2c-0.1-0.1-0.1-0.1-0.2-0.2
		c-0.1-0.1-0.2-0.2-0.3-0.3c-0.1-0.2-0.1-0.5-0.1-0.9v-33.3c0-2.4-0.8-4.3-1.4-5.5c-0.7-1.5-1.8-2.9-3-4.1c-0.1-0.1-0.1-0.1-0.2-0.2
		c-1.3-1-2.7-2.1-4.5-2.7c-1.7-0.6-3.3-0.8-5.2-0.8h-10.2c-1,0-1.9,0.7-2.1,1.7c-0.2,1,0.2,2,1.2,2.5c0.6,0.3,1.1,0.8,1.7,1.3
		l0.3,0.4c0.4,0.6,0.8,1.2,1.1,1.6c0.4,1,0.6,1.9,0.6,3.2v40c0,1.2,1,2.2,2.2,2.2h20.9c1,0,1.9-0.7,2.1-1.7
		C984.3,388.4,983.8,387.4,982.9,386.9z M963.1,386.7v-37.8c0-1.9-0.3-3.4-0.9-5c-0.2-0.5-0.5-0.9-0.8-1.3h5c1.4,0,2.6,0.2,3.8,0.6
		c1,0.3,2,1.1,3,1.9c0.9,0.9,1.6,1.9,2.1,2.9c0.7,1.3,1,2.4,1,3.5v33.3c0,0.6,0.1,1.3,0.2,1.8L963.1,386.7L963.1,386.7z"/>
	<path class="st6" d="M918.4,386.9c-0.3-0.1-0.6-0.3-1-0.4c-0.2-0.1-0.5-0.2-0.5-0.2c-0.1-0.1-0.1-0.1-0.2-0.2
		c-0.1-0.1-0.2-0.2-0.3-0.3c-0.1-0.2-0.1-0.5-0.1-0.9v-33.3c0-0.1,0-0.2,0-0.3c-0.3-1.8-0.5-3.5-1.4-5.2c-0.7-1.5-1.8-2.9-3-4.1
		c-0.1-0.1-0.1-0.1-0.2-0.2c-1.3-1-2.7-2.1-4.5-2.7c-1.7-0.6-3.3-0.8-5.2-0.8h-10.5c-1,0-1.9,0.7-2.1,1.7c-0.2,1,0.2,2,1.2,2.5
		c0.6,0.3,1.1,0.8,1.7,1.3l0.3,0.4c0.4,0.6,0.8,1.2,1.1,1.6c0.4,1,0.6,1.9,0.6,3.2c0,0,0.2,14,0.2,15v24.9c0,1.2,1,2.2,2.2,2.2h20.9
		c1,0,1.9-0.7,2.1-1.7C919.8,388.4,919.3,387.4,918.4,386.9z M898.6,386.7v-23.7c0-0.4-0.2-14-0.2-14c0-1.9-0.3-3.4-0.9-5
		c-0.2-0.5-0.5-0.9-0.8-1.3h5.2c1.4,0,2.6,0.2,3.8,0.6c1,0.3,2,1.1,3,1.9c0.9,0.9,1.6,1.9,2.1,2.9c0.5,1.1,0.7,2.2,1,3.7v33.2
		c0,0.6,0.1,1.3,0.2,1.8L898.6,386.7L898.6,386.7z"/>
	<path class="st6" d="M950.5,386.9c-0.3-0.1-0.6-0.3-1-0.4c-0.2-0.1-0.5-0.2-0.5-0.2c-0.1-0.1-0.1-0.1-0.2-0.2
		c-0.1-0.1-0.2-0.2-0.3-0.3c-0.1-0.2-0.1-0.5-0.1-0.9v-33.3c0-0.1,0-0.2,0-0.3c-0.3-1.8-0.5-3.5-1.4-5.2c-0.7-1.5-1.8-2.9-3-4.1
		c-0.1-0.1-0.1-0.1-0.2-0.2c-1.3-1-2.7-2.1-4.5-2.7c-1.7-0.6-3.3-0.8-5.2-0.8h-10.5c-1,0-1.9,0.7-2.1,1.7c-0.2,1,0.2,2,1.2,2.5
		c0.6,0.3,1.1,0.8,1.7,1.3l0.3,0.4c0.4,0.6,0.8,1.2,1.1,1.6c0.4,1,0.6,1.9,0.6,3.2c0,0,0.2,14,0.2,15v24.9c0,1.2,1,2.2,2.2,2.2h20.9
		c1,0,1.9-0.7,2.1-1.7S951.4,387.4,950.5,386.9z M930.8,386.7v-23.7c0-0.4-0.2-14-0.2-14c0-1.9-0.3-3.4-0.9-5
		c-0.2-0.5-0.5-0.9-0.8-1.3h5.2c1.4,0,2.6,0.2,3.8,0.6c1,0.3,2,1.1,3,1.9c0.9,0.9,1.6,1.9,2.1,2.9c0.5,1.1,0.7,2.2,1,3.7v33.2
		c0,0.6,0.1,1.3,0.2,1.8L930.8,386.7L930.8,386.7z"/>
</g>
<path class="st6" d="M1138.3,147.1H860.7V9.4h277.7V147.1z M865.1,142.7h268.8V13.8H865.1V142.7z"/>
<g>
	<path class="st6" d="M958.6,123.5h-10.2c-1,0-1.9-0.7-2.1-1.7s0.2-2,1.2-2.5c0.6-0.3,1.1-0.8,1.7-1.3l0.3-0.4
		c0.4-0.6,0.8-1.2,1.1-1.8s0.5-1.7,0.5-3.1V52.3c0-1.2,1-2.2,2.2-2.2H974c1,0,1.9,0.7,2.1,1.7s-0.2,2-1.2,2.5
		c-0.3,0.1-0.6,0.3-1,0.4c-0.2,0.1-0.5,0.2-0.7,0.3c0.1,0,0,0,0,0.1c-0.1,0.1-0.2,0.2-0.3,0.3c-0.1,0.2-0.1,0.5-0.1,0.9v49.3
		c0,2.4-0.3,4.7-0.8,6.7c-0.5,2.1-1.4,4-2.4,5.7c-1.3,2-2.9,3.3-4.8,4.1C963.4,122.8,961.4,123.5,958.6,123.5z M953.6,119.1h5
		c1.6,0,2.9-0.3,4.6-1c1.1-0.5,2-1.3,2.8-2.5c0.8-1.2,1.4-2.7,1.8-4.3c0.4-1.7,0.6-3.6,0.6-5.7V56.4c0-0.6,0.1-1.3,0.2-1.8h-13.4
		v58.3c0,2.1-0.3,3.8-0.9,5C954.1,118.2,953.8,118.7,953.6,119.1z M943.3,103.1h-10.5c-1.9,0-3.5-0.3-5.2-0.8
		c-1.8-0.6-3.2-1.7-4.5-2.7c-0.1,0-0.1-0.1-0.2-0.2c-1.3-1.3-2.3-2.7-3-4.1c-0.6-1.2-1.4-3.1-1.4-5.5V63.5c0-0.1,0-0.2,0-0.3
		c0.3-1.8,0.5-3.4,1.3-5.1c0.6-1.7,1.7-3.2,3.3-4.4c1.3-1,2.7-2.1,4.5-2.7c1.7-0.6,3.3-0.8,5.2-0.8h10.5c1,0,1.9,0.7,2.1,1.7
		s-0.2,2-1.2,2.5c-0.6,0.3-1.2,0.9-1.8,1.5c-0.5,0.5-0.8,0.9-1.2,1.9c-0.4,0.8-0.6,1.9-0.6,3.2v31.2c0,1.4,0.2,2.5,0.6,3.5
		c0.2,0.4,0.7,1.1,1.1,1.6l0.3,0.4c0.6,0.6,1.1,1.1,1.7,1.3c0.9,0.5,1.4,1.5,1.2,2.5C945.2,102.4,944.3,103.1,943.3,103.1z
		 M926,96.1c1,0.8,2,1.6,3,1.9c1.3,0.4,2.4,0.6,3.8,0.6h5.2c-0.3-0.4-0.5-0.9-0.8-1.3c-0.7-1.6-0.9-3.3-0.9-5.3V60.9
		c0-2.1,0.3-3.8,0.9-5c0.2-0.5,0.4-0.9,0.6-1.3h-5.1c-1.4,0-2.6,0.2-3.8,0.6c-1.1,0.3-2.1,1.2-3.1,2c-1,0.8-1.6,1.6-1.9,2.5
		c0,0.1-0.1,0.2-0.1,0.3c-0.5,1.1-0.7,2.2-1,3.7v26c0,1.1,0.3,2.2,1,3.5C924.4,94.2,925.1,95.2,926,96.1z"/>
	<path class="st6" d="M1079.3,99.1c-0.3-0.1-0.6-0.3-1-0.4c-0.2-0.1-0.5-0.2-0.5-0.2c-0.1-0.1-0.1-0.1-0.2-0.2s-0.2-0.2-0.3-0.3
		c-0.1-0.2-0.1-0.5-0.1-0.9V63.7c0-2.4-0.8-4.3-1.4-5.5c-0.7-1.5-1.8-2.9-3-4.1c-0.1-0.1-0.1-0.1-0.2-0.2c-1.3-1-2.7-2.1-4.5-2.7
		c-1.7-0.6-3.3-0.8-5.2-0.8h-10.2c-1,0-1.9,0.7-2.1,1.7c-0.2,1,0.2,2,1.2,2.5c0.6,0.3,1.1,0.8,1.7,1.3l0.3,0.4
		c0.4,0.6,0.8,1.2,1.1,1.6c0.4,1,0.6,1.9,0.6,3.2v40c0,1.2,1,2.2,2.2,2.2h20.9c1,0,1.9-0.7,2.1-1.7
		C1080.7,100.6,1080.2,99.6,1079.3,99.1z M1059.5,98.9V61.1c0-1.9-0.3-3.4-0.9-5c-0.2-0.5-0.5-0.9-0.8-1.3h5c1.4,0,2.6,0.2,3.8,0.6
		c1,0.3,2,1.1,3,1.9c0.9,0.9,1.6,1.9,2.1,2.9c0.7,1.3,1,2.4,1,3.5V97c0,0.6,0.1,1.3,0.2,1.8L1059.5,98.9L1059.5,98.9z"/>
	<path class="st6" d="M1014.8,99.1c-0.3-0.1-0.6-0.3-1-0.4c-0.2-0.1-0.5-0.2-0.5-0.2c-0.1-0.1-0.1-0.1-0.2-0.2s-0.2-0.2-0.3-0.3
		c-0.1-0.2-0.1-0.5-0.1-0.9V63.7c0-0.1,0-0.2,0-0.3c-0.3-1.8-0.5-3.5-1.4-5.2c-0.7-1.5-1.8-2.9-3-4.1c-0.1-0.1-0.1-0.1-0.2-0.2
		c-1.3-1-2.7-2.1-4.5-2.7c-1.7-0.6-3.3-0.8-5.2-0.8h-10.5c-1,0-1.9,0.7-2.1,1.7s0.2,2,1.2,2.5c0.6,0.3,1.1,0.8,1.7,1.3l0.3,0.4
		c0.4,0.6,0.8,1.2,1.1,1.6c0.4,1,0.6,1.9,0.6,3.2c0,0,0.2,14,0.2,15v24.9c0,1.2,1,2.2,2.2,2.2h20.9c1,0,1.9-0.7,2.1-1.7
		C1016.2,100.6,1015.7,99.6,1014.8,99.1z M995,98.9V75.2c0-0.4-0.2-14-0.2-14c0-1.9-0.3-3.4-0.9-5c-0.2-0.5-0.5-0.9-0.8-1.3h5.2
		c1.4,0,2.6,0.2,3.8,0.6c1,0.3,2,1.1,3,1.9c0.9,0.9,1.6,1.9,2.1,2.9c0.5,1.1,0.7,2.2,1,3.7V97c0,0.6,0.1,1.3,0.2,1.8L995,98.9
		L995,98.9z"/>
	<path class="st6" d="M1046.9,99.1c-0.3-0.1-0.6-0.3-1-0.4c-0.2-0.1-0.5-0.2-0.5-0.2c-0.1-0.1-0.1-0.1-0.2-0.2
		c-0.1-0.1-0.2-0.2-0.3-0.3c-0.1-0.2-0.1-0.5-0.1-0.9V63.7c0-0.1,0-0.2,0-0.3c-0.3-1.8-0.5-3.5-1.4-5.2c-0.7-1.5-1.8-2.9-3-4.1
		c-0.1-0.1-0.1-0.1-0.2-0.2c-1.3-1-2.7-2.1-4.5-2.7c-1.7-0.6-3.3-0.8-5.2-0.8H1020c-1,0-1.9,0.7-2.1,1.7c-0.2,1,0.2,2,1.2,2.5
		c0.6,0.3,1.1,0.8,1.7,1.3l0.3,0.4c0.4,0.6,0.8,1.2,1.1,1.6c0.4,1,0.6,1.9,0.6,3.2c0,0,0.2,14,0.2,15v24.9c0,1.2,1,2.2,2.2,2.2h20.9
		c1,0,1.9-0.7,2.1-1.7C1048.3,100.6,1047.8,99.6,1046.9,99.1z M1027.2,98.9V75.2c0-0.4-0.2-14-0.2-14c0-1.9-0.3-3.4-0.9-5
		c-0.2-0.5-0.5-0.9-0.8-1.3h5.2c1.4,0,2.6,0.2,3.8,0.6c1,0.3,2,1.1,3,1.9c0.9,0.9,1.6,1.9,2.1,2.9c0.5,1.1,0.7,2.2,1,3.7V97
		c0,0.6,0.1,1.3,0.2,1.8L1027.2,98.9L1027.2,98.9z"/>
</g>
<path class="st6" d="M767.4-66.1H156.6v-357.5h610.8V-66.1z M168.1-77.5H756v-334.6H168.1V-77.5z"/>
<path class="st6" d="M340.9-127.3h-26.6c-2.7,0-4.9-1.8-5.6-4.4c-0.6-2.6,0.6-5.3,3-6.5c1.5-0.8,2.9-2,4.3-3.5l0.7-1
	c1-1.5,2.2-3.2,3-4.7c0.8-1.6,1.2-4.5,1.2-8v-156.9c0-3.2,2.5-5.7,5.7-5.7h54.4c2.7,0,4.9,1.8,5.6,4.4c0.6,2.6-0.6,5.3-3,6.5
	c-0.7,0.4-1.7,0.7-2.6,1.1c-0.6,0.3-1.2,0.5-1.7,0.7c0.3-0.1,0.1,0.1-0.1,0.3c-0.2,0.3-0.5,0.5-0.7,0.8c-0.2,0.6-0.4,1.4-0.4,2.4
	v127.9c0,6.1-0.7,12.2-2,17.5c-1.4,5.6-3.5,10.5-6.3,14.8c-3.4,5.1-7.4,8.6-12.4,10.7C353.6-129.2,348.2-127.3,340.9-127.3z
	 M328-138.7h13c4.2,0,7.6-0.8,12-2.7c2.9-1.2,5.2-3.3,7.4-6.6c2.1-3.2,3.7-6.9,4.8-11.2c1.1-4.4,1.7-9.5,1.7-14.7v-127.9
	c0-1.7,0.2-3.3,0.6-4.8h-34.9v151.3c0,5.4-0.8,9.8-2.4,13.1C329.4-141,328.7-139.8,328-138.7z M301.4-180.4h-27.2
	c-4.8,0-9.2-0.7-13.5-2.1c-4.7-1.6-8.4-4.5-11.7-7.1c-0.2-0.1-0.3-0.3-0.5-0.4c-3.3-3.3-5.9-6.9-7.9-10.8c-1.6-3.2-3.7-8.1-3.7-14.3
	v-68c0-0.3,0-0.5,0.1-0.8c0.7-4.6,1.4-8.8,3.5-13.2c1.6-4.4,4.4-8.2,8.5-11.5c3.3-2.7,7-5.6,11.7-7.1c4.4-1.5,8.7-2.1,13.5-2.1h27.2
	c2.7,0,4.9,1.8,5.6,4.4c0.6,2.6-0.6,5.3-3,6.5c-1.7,0.8-3.1,2.2-4.7,3.8c-1.2,1.2-2,2.3-3.1,4.9c-1,2-1.5,4.9-1.5,8.4v80.9
	c0,3.6,0.5,6.6,1.5,9c0.6,1.1,1.7,2.8,2.8,4.3l0.7,1c1.5,1.5,2.8,2.8,4.3,3.5c2.4,1.2,3.6,3.8,3,6.5
	C306.3-182.3,304-180.4,301.4-180.4z M256.4-198.4c2.7,2.1,5.2,4.1,7.9,5c3.3,1.1,6.3,1.6,9.9,1.6h13.6c-0.7-1.1-1.4-2.3-2-3.5
	c-1.7-4.2-2.4-8.6-2.4-13.7V-290c0-5.4,0.8-9.8,2.4-13.1c0.5-1.2,1-2.4,1.7-3.5h-13.2c-3.6,0-6.7,0.5-9.9,1.6
	c-2.8,0.9-5.4,3-8.1,5.2c-2.5,2-4.2,4.2-5,6.6c-0.1,0.3-0.2,0.5-0.3,0.8c-1.4,2.8-1.9,5.8-2.5,9.6v67.6c0,3,0.7,5.7,2.5,9.2
	C252.2-203.4,254-200.8,256.4-198.4z"/>
<path class="st6" d="M654.3-190.6c-0.7-0.4-1.7-0.7-2.6-1.1c-0.6-0.3-1.2-0.6-1.3-0.5c-0.2-0.2-0.3-0.4-0.5-0.6
	c-0.2-0.3-0.5-0.5-0.7-0.8c-0.2-0.6-0.4-1.4-0.4-2.4v-86.5c0-6.2-2.1-11.1-3.7-14.3c-1.9-3.8-4.6-7.4-7.9-10.8
	c-0.2-0.2-0.3-0.3-0.5-0.4c-3.3-2.6-7-5.6-11.7-7.1c-4.4-1.5-8.7-2.1-13.6-2.1H585c-2.7,0-4.9,1.8-5.6,4.4c-0.6,2.6,0.6,5.3,3,6.5
	c1.5,0.8,2.9,2,4.3,3.5l0.7,1c1,1.5,2.2,3.2,2.8,4.3c1,2.5,1.5,5,1.5,8.4v103.8c0,3.2,2.5,5.7,5.7,5.7h54.4c2.7,0,4.9-1.8,5.6-4.4
	S656.7-189.5,654.3-190.6z M603.1-191.2v-98.1c0-4.8-0.7-8.7-2.4-13.1c-0.6-1.2-1.3-2.4-2-3.5h13c3.6,0,6.7,0.5,9.9,1.6
	c2.7,0.9,5.2,2.9,7.9,5c2.3,2.4,4.2,4.9,5.5,7.5c1.7,3.5,2.5,6.2,2.5,9.2v86.5c0,1.7,0.2,3.3,0.6,4.8h-34.9V-191.2z"/>
<path class="st6" d="M486.9-190.6c-0.7-0.4-1.7-0.7-2.6-1.1c-0.6-0.3-1.2-0.6-1.3-0.5c-0.2-0.2-0.3-0.4-0.5-0.6
	c-0.2-0.3-0.5-0.5-0.7-0.8c-0.2-0.6-0.4-1.4-0.4-2.4v-86.5c0-0.3,0-0.5-0.1-0.8c-0.7-4.8-1.4-9.1-3.6-13.5
	c-1.9-3.8-4.6-7.5-7.9-10.8c-0.2-0.2-0.3-0.3-0.5-0.4c-3.3-2.6-7-5.6-11.7-7.1c-4.4-1.5-8.7-2.1-13.6-2.1H417
	c-2.7,0-4.9,1.8-5.6,4.4c-0.6,2.6,0.6,5.3,3,6.5c1.5,0.8,2.9,2.1,4.3,3.5l0.7,1c1,1.5,2.2,3.2,2.8,4.3c1,2.5,1.5,5,1.5,8.4
	c0,0,0.6,36.3,0.6,39.1v64.8c0,3.2,2.5,5.7,5.7,5.7h54.4c2.7,0,4.9-1.8,5.6-4.4C490.5-186.8,489.2-189.5,486.9-190.6z M435.6-191.2
	v-61.6c0-0.9-0.6-36.5-0.6-36.5c0-4.8-0.7-8.7-2.4-13.1c-0.6-1.2-1.3-2.4-2-3.5h13.6c3.6,0,6.7,0.5,9.9,1.6c2.7,0.9,5.2,2.9,7.9,5
	c2.3,2.3,4.2,4.9,5.5,7.5c1.4,2.8,1.9,5.8,2.5,9.6v86.1c0,1.7,0.2,3.3,0.6,4.8h-34.9V-191.2z"/>
<path class="st6" d="M570.3-190.6c-0.7-0.4-1.7-0.7-2.6-1.1c-0.6-0.3-1.2-0.6-1.3-0.5c-0.2-0.2-0.3-0.4-0.5-0.6
	c-0.2-0.3-0.5-0.5-0.7-0.8c-0.2-0.6-0.4-1.4-0.4-2.4v-86.5c0-0.3,0-0.5-0.1-0.8c-0.7-4.8-1.4-9.1-3.6-13.5
	c-1.9-3.8-4.6-7.5-7.9-10.8c-0.2-0.2-0.3-0.3-0.5-0.4c-3.3-2.6-7-5.6-11.7-7.1c-4.4-1.5-8.7-2.1-13.6-2.1h-27.2
	c-2.7,0-4.9,1.8-5.6,4.4c-0.6,2.6,0.6,5.3,3,6.5c1.5,0.8,2.9,2.1,4.3,3.5l0.7,1c1,1.5,2.2,3.2,2.8,4.3c1,2.5,1.5,5,1.5,8.4
	c0,0,0.6,36.3,0.6,39.1v64.8c0,3.2,2.5,5.7,5.7,5.7h54.4c2.7,0,4.9-1.8,5.6-4.4S572.6-189.5,570.3-190.6z M519.1-191.2v-61.6
	c0-0.9-0.6-36.5-0.6-36.5c0-4.8-0.7-8.7-2.4-13.1c-0.6-1.2-1.3-2.4-2-3.5h13.6c3.6,0,6.7,0.5,9.9,1.6c2.7,0.9,5.2,2.9,7.9,5
	c2.3,2.3,4.2,4.9,5.5,7.5c1.4,2.8,1.9,5.8,2.5,9.6v86.1c0,1.7,0.2,3.3,0.6,4.8h-34.9V-191.2z"/>
</svg>
